G04 EasyPC Gerber Version 20.0.2 Build 4112 *
%FSLAX35Y35*%
%MOIN*%
%ADD100O,0.07000X0.12000*%
%ADD104R,0.07000X0.07000*%
%ADD23C,0.07000*%
%ADD102C,0.08000*%
%ADD134C,0.09600*%
%ADD96C,0.16000*%
%ADD109O,0.12000X0.07000*%
%ADD72R,0.09000X0.07000*%
%ADD133C,0.26000*%
%ADD132C,0.30500*%
X0Y0D02*
D02*
D23*
X97750Y104000D03*
Y114000D03*
Y124000D03*
Y134000D03*
Y144000D03*
Y154000D03*
Y164000D03*
Y174000D03*
Y184000D03*
X109000Y130250D03*
Y144000D03*
Y156500D03*
Y169000D03*
X110250Y259000D03*
Y289000D03*
X115250Y232750D03*
X124000Y65250D03*
Y75250D03*
Y85250D03*
X137750Y294000D03*
Y334000D03*
X140250Y449000D03*
X145250Y364000D03*
Y374000D03*
X146500Y264000D03*
Y279000D03*
X149000Y65250D03*
Y75250D03*
Y85250D03*
Y130250D03*
Y144000D03*
Y156500D03*
Y169000D03*
X150250Y449000D03*
X152750Y301500D03*
Y341500D03*
X154000Y194000D03*
Y224000D03*
X155250Y232750D03*
X157750Y174000D03*
X161500Y82750D03*
Y122750D03*
X165250Y259000D03*
X166500Y202750D03*
X172750Y144000D03*
X174000Y64000D03*
Y94000D03*
X180250Y296500D03*
Y311500D03*
Y334000D03*
Y344000D03*
X187750Y174000D03*
X190250Y379000D03*
Y409000D03*
X195250Y259000D03*
X196500Y202750D03*
X202750Y64000D03*
Y94000D03*
Y144000D03*
X211500Y222750D03*
Y262750D03*
X217750Y72750D03*
Y112750D03*
X220250Y351500D03*
Y360250D03*
Y370250D03*
Y380250D03*
X227750Y401500D03*
X229000Y351500D03*
Y360250D03*
Y370250D03*
Y380250D03*
X230250Y449000D03*
X234000Y65250D03*
Y75250D03*
Y85250D03*
X237750Y351500D03*
Y360250D03*
Y370250D03*
Y380250D03*
Y401500D03*
X240250Y449000D03*
X246500Y351500D03*
Y360250D03*
Y370250D03*
Y380250D03*
X247750Y401500D03*
X254000Y65250D03*
Y75250D03*
Y85250D03*
X255250Y351500D03*
Y360250D03*
Y370250D03*
Y380250D03*
X257750Y401500D03*
X265250Y351500D03*
Y360250D03*
Y370250D03*
Y380250D03*
X267750Y401500D03*
X271500Y149000D03*
Y239000D03*
X272750Y336500D03*
X275250Y351500D03*
Y360250D03*
Y370250D03*
Y380250D03*
X277750Y401500D03*
X285250Y351500D03*
Y360250D03*
Y370250D03*
Y380250D03*
X287750Y401500D03*
X295250Y351500D03*
Y360250D03*
Y370250D03*
Y380250D03*
X301500Y149000D03*
Y239000D03*
X302750Y336500D03*
X305250Y351500D03*
Y360250D03*
Y370250D03*
Y380250D03*
X315250Y351500D03*
Y360250D03*
Y370250D03*
Y380250D03*
X320250Y449000D03*
X325250Y351500D03*
Y360250D03*
Y370250D03*
Y380250D03*
X330250Y449000D03*
X335250Y351500D03*
Y360250D03*
Y370250D03*
X344000Y351500D03*
Y360250D03*
X352750Y304000D03*
Y344000D03*
X392750Y225250D03*
Y265250D03*
D02*
D72*
X382750Y279000D03*
Y289000D03*
Y314000D03*
Y324000D03*
D02*
D96*
X130250Y469000D03*
X170250D03*
X220250D03*
X260250D03*
X310250D03*
X350250D03*
D02*
D100*
X82750Y416500D03*
Y446500D03*
X89000Y209000D03*
Y239000D03*
X92750Y416500D03*
Y446500D03*
X99000Y209000D03*
Y239000D03*
X102750Y416500D03*
Y446500D03*
D02*
D102*
X92750Y259000D03*
Y269000D03*
Y279000D03*
Y324000D03*
Y334000D03*
Y344000D03*
D02*
D104*
X97750Y91500D03*
Y194000D03*
X107750Y369000D03*
Y379000D03*
Y389000D03*
Y399000D03*
X110250Y104000D03*
Y194000D03*
X164000Y156500D03*
X210250Y401500D03*
X274000Y60250D03*
X297750Y401500D03*
X330250Y64000D03*
X342750Y234000D03*
Y244000D03*
Y254000D03*
Y264000D03*
X345250Y81500D03*
Y104000D03*
Y114000D03*
X350250Y156500D03*
Y191500D03*
X352750Y284000D03*
Y369000D03*
Y396500D03*
Y419000D03*
X356500Y64000D03*
X375250Y121500D03*
Y131500D03*
Y141500D03*
X380250Y176500D03*
X382750Y206500D03*
X387750Y424000D03*
D02*
D109*
X140250Y394000D03*
Y404000D03*
X166500Y212750D03*
Y222750D03*
Y232750D03*
Y242750D03*
X170250Y394000D03*
Y404000D03*
X174000Y102750D03*
Y112750D03*
Y122750D03*
Y132750D03*
X196500Y212750D03*
Y222750D03*
Y232750D03*
Y242750D03*
X204000Y102750D03*
Y112750D03*
Y122750D03*
Y132750D03*
X220250Y169000D03*
Y179000D03*
Y189000D03*
Y199000D03*
Y209000D03*
Y219000D03*
Y229000D03*
X250250Y169000D03*
Y179000D03*
Y189000D03*
Y199000D03*
Y209000D03*
Y219000D03*
Y229000D03*
X271500Y79000D03*
Y89000D03*
Y99000D03*
Y109000D03*
Y119000D03*
Y129000D03*
Y139000D03*
Y169000D03*
Y179000D03*
Y189000D03*
Y199000D03*
Y209000D03*
Y219000D03*
Y229000D03*
Y266500D03*
Y276500D03*
Y286500D03*
Y296500D03*
Y306500D03*
Y316500D03*
Y326500D03*
X301500Y79000D03*
Y89000D03*
Y99000D03*
Y109000D03*
Y119000D03*
Y129000D03*
Y139000D03*
Y169000D03*
Y179000D03*
Y189000D03*
Y199000D03*
Y209000D03*
Y219000D03*
Y229000D03*
Y266500D03*
Y276500D03*
Y286500D03*
Y296500D03*
Y306500D03*
Y316500D03*
Y326500D03*
D02*
D132*
X90250Y71500D03*
Y471500D03*
X390250Y71500D03*
Y471500D03*
D02*
D133*
X132750Y109000D03*
Y429000D03*
X195250Y469000D03*
X285250D03*
X322750Y129000D03*
Y429000D03*
X390250Y396500D03*
D02*
D134*
X122750Y294000D03*
Y344000D03*
X0Y0D02*
M02*
