G04 EasyPC Gerber Version 20.0.2 Build 4112 *
%FSLAX35Y35*%
%MOIN*%
%ADD10C,0.00100*%
%ADD11C,0.00500*%
%ADD74C,0.00800*%
%ADD12C,0.01000*%
%ADD13C,0.01500*%
%ADD128C,0.02000*%
X0Y0D02*
D02*
D10*
X13750Y256500D02*
X7750D01*
X11750Y254000*
Y258000*
X13750Y262500D02*
X13250Y263000D01*
X12750Y262500*
X13250Y262000*
X13750Y262500*
X13250Y270000D02*
X13750Y271000D01*
Y272500*
X13250Y273500*
X12250Y274000*
X11750*
X10750Y273500*
X10250Y272500*
Y270000*
X7750*
Y274000*
X13250Y278500D02*
X13750Y279500D01*
Y280500*
X13250Y281500*
X12250Y282000*
X9250*
X8250Y281500*
X7750Y280500*
Y279500*
X8250Y278500*
X9250Y278000*
X12250*
X13250Y278500*
X8250Y281500*
X13250Y286500D02*
X13750Y287500D01*
Y288500*
X13250Y289500*
X12250Y290000*
X9250*
X8250Y289500*
X7750Y288500*
Y287500*
X8250Y286500*
X9250Y286000*
X12250*
X13250Y286500*
X8250Y289500*
X33750Y256500D02*
X27750D01*
X31750Y254000*
Y258000*
X33750Y262500D02*
X33250Y263000D01*
X32750Y262500*
X33250Y262000*
X33750Y262500*
X33250Y270500D02*
X33750Y271500D01*
Y272500*
X33250Y273500*
X32250Y274000*
X29250*
X28250Y273500*
X27750Y272500*
Y271500*
X28250Y270500*
X29250Y270000*
X32250*
X33250Y270500*
X28250Y273500*
X33250Y278500D02*
X33750Y279500D01*
Y280500*
X33250Y281500*
X32250Y282000*
X29250*
X28250Y281500*
X27750Y280500*
Y279500*
X28250Y278500*
X29250Y278000*
X32250*
X33250Y278500*
X28250Y281500*
X33250Y286500D02*
X33750Y287500D01*
Y288500*
X33250Y289500*
X32250Y290000*
X29250*
X28250Y289500*
X27750Y288500*
Y287500*
X28250Y286500*
X29250Y286000*
X32250*
X33250Y286500*
X28250Y289500*
X51250Y287000D02*
X50750Y287500D01*
X50250Y287000*
X50750Y286500*
X51250Y287000*
X49750Y294500D02*
X48750Y295000D01*
X48250Y296000*
Y297000*
X48750Y298000*
X49750Y298500*
X50750Y298000*
X51250Y297000*
Y296000*
X50750Y295000*
X49750Y294500*
X48250*
X46750Y295000*
X45750Y296000*
X45250Y297000*
X50750Y302500D02*
X51250Y303500D01*
Y305000*
X50750Y306000*
X49750Y306500*
X49250*
X48250Y306000*
X47750Y305000*
Y302500*
X45250*
Y306500*
X50750Y311000D02*
X51250Y312000D01*
Y313000*
X50750Y314000*
X49750Y314500*
X46750*
X45750Y314000*
X45250Y313000*
Y312000*
X45750Y311000*
X46750Y310500*
X49750*
X50750Y311000*
X45750Y314000*
X95750Y591750D02*
X96250Y592250D01*
X95750Y592750*
X95250Y592250*
X95750Y591750*
X104750Y594750D02*
X105750D01*
X106750Y595250*
X107250Y596250*
X106750Y597250*
X105750Y597750*
X104750*
X103750Y597250*
X103250Y596250*
X103750Y595250*
X104750Y594750*
X103750Y594250*
X103250Y593250*
X103750Y592250*
X104750Y591750*
X105750*
X106750Y592250*
X107250Y593250*
X106750Y594250*
X105750Y594750*
X111250Y592250D02*
X112250Y591750D01*
X113750*
X114750Y592250*
X115250Y593250*
Y593750*
X114750Y594750*
X113750Y595250*
X111250*
Y597750*
X115250*
X119750Y592250D02*
X120750Y591750D01*
X121750*
X122750Y592250*
X123250Y593250*
Y596250*
X122750Y597250*
X121750Y597750*
X120750*
X119750Y597250*
X119250Y596250*
Y593250*
X119750Y592250*
X122750Y597250*
X70000Y13000D02*
X70500Y13500D01*
X70000Y14000*
X69500Y13500*
X70000Y13000*
X81500D02*
X77500D01*
X81000Y16500*
X81500Y17500*
X81000Y18500*
X80000Y19000*
X78500*
X77500Y18500*
X85500Y13500D02*
X86500Y13000D01*
X88000*
X89000Y13500*
X89500Y14500*
Y15000*
X89000Y16000*
X88000Y16500*
X85500*
Y19000*
X89500*
X94000Y13500D02*
X95000Y13000D01*
X96000*
X97000Y13500*
X97500Y14500*
Y17500*
X97000Y18500*
X96000Y19000*
X95000*
X94000Y18500*
X93500Y17500*
Y14500*
X94000Y13500*
X97000Y18500*
X179500Y593000D02*
X180000Y593500D01*
X179500Y594000*
X179000Y593500*
X179500Y593000*
X188500D02*
X189500Y593500D01*
X190500Y594500*
X191000Y596000*
Y597500*
X190500Y598500*
X189500Y599000*
X188500*
X187500Y598500*
X187000Y597500*
X187500Y596500*
X188500Y596000*
X189500*
X190500Y596500*
X191000Y597500*
X195500Y593500D02*
X196500Y593000D01*
X197500*
X198500Y593500*
X199000Y594500*
Y597500*
X198500Y598500*
X197500Y599000*
X196500*
X195500Y598500*
X195000Y597500*
Y594500*
X195500Y593500*
X198500Y598500*
X203500Y593500D02*
X204500Y593000D01*
X205500*
X206500Y593500*
X207000Y594500*
Y597500*
X206500Y598500*
X205500Y599000*
X204500*
X203500Y598500*
X203000Y597500*
Y594500*
X203500Y593500*
X206500Y598500*
X218250Y4750D02*
X219250Y4250D01*
X220250*
X221250Y4750*
X221750Y5750*
X221250Y6750*
X220250Y7250*
X219250*
X220250D02*
X221250Y7750D01*
X221750Y8750*
X221250Y9750*
X220250Y10250*
X219250*
X218250Y9750*
X226250Y4250D02*
X226750Y4750D01*
X226250Y5250*
X225750Y4750*
X226250Y4250*
X233750Y4750D02*
X234750Y4250D01*
X236250*
X237250Y4750*
X237750Y5750*
Y6250*
X237250Y7250*
X236250Y7750*
X233750*
Y10250*
X237750*
X242250Y4750D02*
X243250Y4250D01*
X244250*
X245250Y4750*
X245750Y5750*
Y8750*
X245250Y9750*
X244250Y10250*
X243250*
X242250Y9750*
X241750Y8750*
Y5750*
X242250Y4750*
X245250Y9750*
X250250Y4750D02*
X251250Y4250D01*
X252250*
X253250Y4750*
X253750Y5750*
Y8750*
X253250Y9750*
X252250Y10250*
X251250*
X250250Y9750*
X249750Y8750*
Y5750*
X250250Y4750*
X253250Y9750*
X220750Y23500D02*
X221750Y23000D01*
X222750*
X223750Y23500*
X224250Y24500*
X223750Y25500*
X222750Y26000*
X221750*
X222750D02*
X223750Y26500D01*
X224250Y27500*
X223750Y28500*
X222750Y29000*
X221750*
X220750Y28500*
X228750Y23000D02*
X229250Y23500D01*
X228750Y24000*
X228250Y23500*
X228750Y23000*
X236750Y23500D02*
X237750Y23000D01*
X238750*
X239750Y23500*
X240250Y24500*
Y27500*
X239750Y28500*
X238750Y29000*
X237750*
X236750Y28500*
X236250Y27500*
Y24500*
X236750Y23500*
X239750Y28500*
X244750Y23500D02*
X245750Y23000D01*
X246750*
X247750Y23500*
X248250Y24500*
Y27500*
X247750Y28500*
X246750Y29000*
X245750*
X244750Y28500*
X244250Y27500*
Y24500*
X244750Y23500*
X247750Y28500*
X252750Y23500D02*
X253750Y23000D01*
X254750*
X255750Y23500*
X256250Y24500*
Y27500*
X255750Y28500*
X254750Y29000*
X253750*
X252750Y28500*
X252250Y27500*
Y24500*
X252750Y23500*
X255750Y28500*
X270750Y594250D02*
X271250Y594750D01*
X270750Y595250*
X270250Y594750*
X270750Y594250*
X279750D02*
X280750Y594750D01*
X281750Y595750*
X282250Y597250*
Y598750*
X281750Y599750*
X280750Y600250*
X279750*
X278750Y599750*
X278250Y598750*
X278750Y597750*
X279750Y597250*
X280750*
X281750Y597750*
X282250Y598750*
X286750Y594750D02*
X287750Y594250D01*
X288750*
X289750Y594750*
X290250Y595750*
Y598750*
X289750Y599750*
X288750Y600250*
X287750*
X286750Y599750*
X286250Y598750*
Y595750*
X286750Y594750*
X289750Y599750*
X294750Y594750D02*
X295750Y594250D01*
X296750*
X297750Y594750*
X298250Y595750*
Y598750*
X297750Y599750*
X296750Y600250*
X295750*
X294750Y599750*
X294250Y598750*
Y595750*
X294750Y594750*
X297750Y599750*
X362000Y594250D02*
X362500Y594750D01*
X362000Y595250*
X361500Y594750*
X362000Y594250*
X371000Y597250D02*
X372000D01*
X373000Y597750*
X373500Y598750*
X373000Y599750*
X372000Y600250*
X371000*
X370000Y599750*
X369500Y598750*
X370000Y597750*
X371000Y597250*
X370000Y596750*
X369500Y595750*
X370000Y594750*
X371000Y594250*
X372000*
X373000Y594750*
X373500Y595750*
X373000Y596750*
X372000Y597250*
X377500Y594750D02*
X378500Y594250D01*
X380000*
X381000Y594750*
X381500Y595750*
Y596250*
X381000Y597250*
X380000Y597750*
X377500*
Y600250*
X381500*
X386000Y594750D02*
X387000Y594250D01*
X388000*
X389000Y594750*
X389500Y595750*
Y598750*
X389000Y599750*
X388000Y600250*
X387000*
X386000Y599750*
X385500Y598750*
Y595750*
X386000Y594750*
X389000Y599750*
X383750Y13000D02*
X384250Y13500D01*
X383750Y14000*
X383250Y13500*
X383750Y13000*
X395250D02*
X391250D01*
X394750Y16500*
X395250Y17500*
X394750Y18500*
X393750Y19000*
X392250*
X391250Y18500*
X399250Y13500D02*
X400250Y13000D01*
X401750*
X402750Y13500*
X403250Y14500*
Y15000*
X402750Y16000*
X401750Y16500*
X399250*
Y19000*
X403250*
X407750Y13500D02*
X408750Y13000D01*
X409750*
X410750Y13500*
X411250Y14500*
Y17500*
X410750Y18500*
X409750Y19000*
X408750*
X407750Y18500*
X407250Y17500*
Y14500*
X407750Y13500*
X410750Y18500*
X484000Y195131D02*
X488150D01*
X492300Y193056D02*
X494894Y199281D01*
X497487Y193056*
X493337Y195650D02*
X496450D01*
X502156Y196169D02*
X503194D01*
X504231Y196687*
X504750Y197725*
X504231Y198763*
X503194Y199281*
X502156*
X501119Y198763*
X500600Y197725*
X501119Y196687*
X502156Y196169*
X501119Y195650*
X500600Y194613*
X501119Y193575*
X502156Y193056*
X503194*
X504231Y193575*
X504750Y194613*
X504231Y195650*
X503194Y196169*
X484000Y185171D02*
X488150D01*
X492300Y183096D02*
X494894Y189321D01*
X497487Y183096*
X493337Y185690D02*
X496450D01*
X502156Y183096D02*
X503194Y183615D01*
X504231Y184653*
X504750Y186209*
Y187765*
X504231Y188803*
X503194Y189321*
X502156*
X501119Y188803*
X500600Y187765*
X501119Y186728*
X502156Y186209*
X503194*
X504231Y186728*
X504750Y187765*
X484000Y175211D02*
X488150D01*
X492300Y173137D02*
X494894Y179361D01*
X497487Y173137*
X493337Y175730D02*
X496450D01*
X501637Y173137D02*
X503713D01*
X502675D02*
Y179361D01*
X501637Y178324*
X509419Y173656D02*
X510456Y173137D01*
X511494*
X512531Y173656*
X513050Y174693*
Y177806*
X512531Y178843*
X511494Y179361*
X510456*
X509419Y178843*
X508900Y177806*
Y174693*
X509419Y173656*
X512531Y178843*
X484000Y165252D02*
X488150D01*
X492300Y163177D02*
X494894Y169402D01*
X497487Y163177*
X493337Y165770D02*
X496450D01*
X501637Y163177D02*
X503713D01*
X502675D02*
Y169402D01*
X501637Y168364*
X509937Y163177D02*
X512013D01*
X510975D02*
Y169402D01*
X509937Y168364*
X484000Y155292D02*
X488150D01*
X492300Y153217D02*
Y159442D01*
X495413*
X496450Y158923*
X496969Y158404*
X497487Y157367*
Y155292*
X496969Y154254*
X496450Y153736*
X495413Y153217*
X492300*
X500600D02*
X503194Y159442D01*
X505787Y153217*
X501637Y155811D02*
X504750D01*
X514087Y154254D02*
X513569Y153736D01*
X512531Y153217*
X510975*
X509937Y153736*
X509419Y154254*
X508900Y155292*
Y157367*
X509419Y158404*
X509937Y158923*
X510975Y159442*
X512531*
X513569Y158923*
X514087Y158404*
X517719Y153736D02*
X518756Y153217D01*
X519794*
X520831Y153736*
X521350Y154773*
Y157886*
X520831Y158923*
X519794Y159442*
X518756*
X517719Y158923*
X517200Y157886*
Y154773*
X517719Y153736*
X520831Y158923*
X484000Y145332D02*
X488150D01*
X492300Y143257D02*
Y149482D01*
X495413*
X496450Y148963*
X496969Y148444*
X497487Y147407*
Y145332*
X496969Y144294*
X496450Y143776*
X495413Y143257*
X492300*
X500600D02*
X503194Y149482D01*
X505787Y143257*
X501637Y145851D02*
X504750D01*
X514087Y144294D02*
X513569Y143776D01*
X512531Y143257*
X510975*
X509937Y143776*
X509419Y144294*
X508900Y145332*
Y147407*
X509419Y148444*
X509937Y148963*
X510975Y149482*
X512531*
X513569Y148963*
X514087Y148444*
X518237Y143257D02*
X520313D01*
X519275D02*
Y149482D01*
X518237Y148444*
X484000Y135372D02*
X488150D01*
X497487Y134335D02*
X496969Y133816D01*
X495931Y133297*
X494375*
X493337Y133816*
X492819Y134335*
X492300Y135372*
Y137447*
X492819Y138485*
X493337Y139004*
X494375Y139522*
X495931*
X496969Y139004*
X497487Y138485*
X500600Y133297D02*
X503194Y139522D01*
X505787Y133297*
X501637Y135891D02*
X504750D01*
X508900Y133297D02*
Y139522D01*
X514087Y133297*
Y139522*
X517200Y133297D02*
Y139522D01*
X520831*
X521869Y139004*
X522387Y137966*
X521869Y136928*
X520831Y136410*
X517200*
X520831D02*
X522387Y133297D01*
X525500D02*
X530687Y139522D01*
X525500D02*
X530687Y133297D01*
X484000Y125412D02*
X488150D01*
X497487Y124375D02*
X496969Y123856D01*
X495931Y123337*
X494375*
X493337Y123856*
X492819Y124375*
X492300Y125412*
Y127487*
X492819Y128525*
X493337Y129044*
X494375Y129562*
X495931*
X496969Y129044*
X497487Y128525*
X500600Y123337D02*
X503194Y129562D01*
X505787Y123337*
X501637Y125931D02*
X504750D01*
X508900Y123337D02*
Y129562D01*
X514087Y123337*
Y129562*
X519794Y123337D02*
Y129562D01*
X517200D02*
X522387D01*
X525500Y123337D02*
X530687Y129562D01*
X525500D02*
X530687Y123337D01*
X484000Y277631D02*
X488150D01*
X492300Y275556D02*
X494894Y281781D01*
X497487Y275556*
X493337Y278150D02*
X496450D01*
X501119Y276075D02*
X502156Y275556D01*
X503194*
X504231Y276075*
X504750Y277113*
Y280225*
X504231Y281263*
X503194Y281781*
X502156*
X501119Y281263*
X500600Y280225*
Y277113*
X501119Y276075*
X504231Y281263*
X484000Y267671D02*
X488150D01*
X492300Y265596D02*
X494894Y271821D01*
X497487Y265596*
X493337Y268190D02*
X496450D01*
X501637Y265596D02*
X503713D01*
X502675D02*
Y271821D01*
X501637Y270784*
X484000Y257711D02*
X488150D01*
X492300Y255637D02*
X494894Y261861D01*
X497487Y255637*
X493337Y258230D02*
X496450D01*
X504750Y255637D02*
X500600D01*
X504231Y259268*
X504750Y260306*
X504231Y261343*
X503194Y261861*
X501637*
X500600Y261343*
X484000Y247752D02*
X488150D01*
X492300Y245677D02*
X494894Y251902D01*
X497487Y245677*
X493337Y248270D02*
X496450D01*
X501119Y246196D02*
X502156Y245677D01*
X503194*
X504231Y246196*
X504750Y247233*
X504231Y248270*
X503194Y248789*
X502156*
X503194D02*
X504231Y249308D01*
X504750Y250346*
X504231Y251383*
X503194Y251902*
X502156*
X501119Y251383*
X484000Y237792D02*
X488150D01*
X492300D02*
X496450D01*
X500600D02*
X504750D01*
X508900D02*
X513050D01*
X517200Y235717D02*
X519794Y241942D01*
X522387Y235717*
X518237Y238311D02*
X521350D01*
X528094Y235717D02*
Y241942D01*
X525500Y237792*
X529650*
X484000Y227832D02*
X488150D01*
X508900D02*
X513050D01*
X517200Y225757D02*
X519794Y231982D01*
X522387Y225757*
X518237Y228351D02*
X521350D01*
X525500Y226276D02*
X526537Y225757D01*
X528094*
X529131Y226276*
X529650Y227313*
Y227832*
X529131Y228870*
X528094Y229388*
X525500*
Y231982*
X529650*
X484000Y217872D02*
X488150D01*
X492300D02*
X496450D01*
X500600D02*
X504750D01*
X508900D02*
X513050D01*
X517200Y215797D02*
X519794Y222022D01*
X522387Y215797*
X518237Y218391D02*
X521350D01*
X525500Y217354D02*
X526019Y218391D01*
X527056Y218910*
X528094*
X529131Y218391*
X529650Y217354*
X529131Y216316*
X528094Y215797*
X527056*
X526019Y216316*
X525500Y217354*
Y218910*
X526019Y220466*
X527056Y221504*
X528094Y222022*
X484000Y207912D02*
X488150D01*
X492300Y205837D02*
X494894Y212062D01*
X497487Y205837*
X493337Y208431D02*
X496450D01*
X500600Y205837D02*
X504750Y212062D01*
X500600*
X484000Y355131D02*
X488150D01*
X493856Y353056D02*
X495931D01*
X494894D02*
Y359281D01*
X493856D02*
X495931D01*
X500600Y355131D02*
Y357206D01*
X501119Y358244*
X501637Y358763*
X502675Y359281*
X503713*
X504750Y358763*
X505269Y358244*
X505787Y357206*
Y355131*
X505269Y354094*
X504750Y353575*
X503713Y353056*
X502675*
X501637Y353575*
X501119Y354094*
X500600Y355131*
X508900Y353056D02*
Y359281D01*
X512531*
X513569Y358763*
X514087Y357725*
X513569Y356687*
X512531Y356169*
X508900*
X512531D02*
X514087Y353056D01*
X517200D02*
Y359281D01*
X522387*
X521350Y356169D02*
X517200D01*
Y353056D02*
X522387D01*
X525500D02*
Y359281D01*
X530687*
X529650Y356169D02*
X525500D01*
X484000Y345171D02*
X488150D01*
X492300Y343096D02*
Y349321D01*
X495931*
X496969Y348803*
X497487Y347765*
X496969Y346728*
X495931Y346209*
X492300*
X495931D02*
X497487Y343096D01*
X500600D02*
Y349321D01*
X505787*
X504750Y346209D02*
X500600D01*
Y343096D02*
X505787D01*
X508900Y344653D02*
X509419Y343615D01*
X510456Y343096*
X512531*
X513569Y343615*
X514087Y344653*
X513569Y345690*
X512531Y346209*
X510456*
X509419Y346728*
X508900Y347765*
X509419Y348803*
X510456Y349321*
X512531*
X513569Y348803*
X514087Y347765*
X517200Y343096D02*
Y349321D01*
X522387*
X521350Y346209D02*
X517200D01*
Y343096D02*
X522387D01*
X528094D02*
Y349321D01*
X525500D02*
X530687D01*
X484000Y335211D02*
X488150D01*
X492819Y333656D02*
X493856Y333137D01*
X494894*
X495931Y333656*
X496450Y334693*
X495931Y335730*
X494894Y336249*
X493856*
X494894D02*
X495931Y336768D01*
X496450Y337806*
X495931Y338843*
X494894Y339361*
X493856*
X492819Y338843*
X501119Y333137D02*
X501637Y333656D01*
X501119Y334174*
X500600Y333656*
X501119Y333137*
X509419Y333656D02*
X510456Y333137D01*
X511494*
X512531Y333656*
X513050Y334693*
X512531Y335730*
X511494Y336249*
X510456*
X511494D02*
X512531Y336768D01*
X513050Y337806*
X512531Y338843*
X511494Y339361*
X510456*
X509419Y338843*
X517200Y339361D02*
X519794Y333137D01*
X522387Y339361*
X484000Y325252D02*
X488150D01*
X492300Y323696D02*
X493337Y323177D01*
X494894*
X495931Y323696*
X496450Y324733*
Y325252*
X495931Y326289*
X494894Y326808*
X492300*
Y329402*
X496450*
X500600D02*
X503194Y323177D01*
X505787Y329402*
X484000Y315292D02*
X488150D01*
X495931Y315811D02*
X497487D01*
Y315292*
X496969Y314254*
X496450Y313736*
X495413Y313217*
X494375*
X493337Y313736*
X492819Y314254*
X492300Y315292*
Y317367*
X492819Y318404*
X493337Y318923*
X494375Y319442*
X495413*
X496450Y318923*
X496969Y318404*
X497487Y317367*
X500600Y313217D02*
Y319442D01*
X505787Y313217*
Y319442*
X508900Y313217D02*
Y319442D01*
X512013*
X513050Y318923*
X513569Y318404*
X514087Y317367*
Y315292*
X513569Y314254*
X513050Y313736*
X512013Y313217*
X508900*
X484000Y305332D02*
X488150D01*
X495931Y305851D02*
X497487D01*
Y305332*
X496969Y304294*
X496450Y303776*
X495413Y303257*
X494375*
X493337Y303776*
X492819Y304294*
X492300Y305332*
Y307407*
X492819Y308444*
X493337Y308963*
X494375Y309482*
X495413*
X496450Y308963*
X496969Y308444*
X497487Y307407*
X500600Y303257D02*
Y309482D01*
X505787Y303257*
Y309482*
X508900Y303257D02*
Y309482D01*
X512013*
X513050Y308963*
X513569Y308444*
X514087Y307407*
Y305332*
X513569Y304294*
X513050Y303776*
X512013Y303257*
X508900*
X484000Y295372D02*
X488150D01*
X492300Y299522D02*
X494894Y293297D01*
X497487Y299522*
X502156Y293297D02*
X504231D01*
X503194D02*
Y299522D01*
X502156D02*
X504231D01*
X508900Y293297D02*
Y299522D01*
X514087Y293297*
Y299522*
X610994Y218056D02*
Y224281D01*
X608400D02*
X613587D01*
X616700Y218056D02*
X621887Y224281D01*
X616700D02*
X621887Y218056D01*
X625519Y218575D02*
X626556Y218056D01*
X627594*
X628631Y218575*
X629150Y219613*
X628631Y220650*
X627594Y221169*
X626556*
X627594D02*
X628631Y221687D01*
X629150Y222725*
X628631Y223763*
X627594Y224281*
X626556*
X625519Y223763*
X642637Y218056D02*
X644713D01*
X643675D02*
Y224281D01*
X642637Y223244*
X652494Y218056D02*
Y224281D01*
X649900Y220131*
X654050*
X658200D02*
X662350D01*
X608400Y208096D02*
Y214321D01*
X612031*
X613069Y213803*
X613587Y212765*
X613069Y211728*
X612031Y211209*
X608400*
X612031D02*
X613587Y208096D01*
X616700D02*
X621887Y214321D01*
X616700D02*
X621887Y208096D01*
X625519Y208615D02*
X626556Y208096D01*
X627594*
X628631Y208615*
X629150Y209653*
X628631Y210690*
X627594Y211209*
X626556*
X627594D02*
X628631Y211728D01*
X629150Y212765*
X628631Y213803*
X627594Y214321*
X626556*
X625519Y213803*
X642637Y208096D02*
X644713D01*
X643675D02*
Y214321D01*
X642637Y213284*
X649900Y208615D02*
X650937Y208096D01*
X652494*
X653531Y208615*
X654050Y209653*
Y210171*
X653531Y211209*
X652494Y211728*
X649900*
Y214321*
X654050*
X658200Y210171D02*
X662350D01*
X610994Y198137D02*
Y204361D01*
X608400D02*
X613587D01*
X616700Y198137D02*
X621887Y204361D01*
X616700D02*
X621887Y198137D01*
X629150D02*
X625000D01*
X628631Y201768*
X629150Y202806*
X628631Y203843*
X627594Y204361*
X626037*
X625000Y203843*
X642637Y198137D02*
X644713D01*
X643675D02*
Y204361D01*
X642637Y203324*
X649900Y199693D02*
X650419Y200730D01*
X651456Y201249*
X652494*
X653531Y200730*
X654050Y199693*
X653531Y198656*
X652494Y198137*
X651456*
X650419Y198656*
X649900Y199693*
Y201249*
X650419Y202806*
X651456Y203843*
X652494Y204361*
X658200Y200211D02*
X662350D01*
X608400Y188177D02*
Y194402D01*
X612031*
X613069Y193883*
X613587Y192846*
X613069Y191808*
X612031Y191289*
X608400*
X612031D02*
X613587Y188177D01*
X616700D02*
X621887Y194402D01*
X616700D02*
X621887Y188177D01*
X629150D02*
X625000D01*
X628631Y191808*
X629150Y192846*
X628631Y193883*
X627594Y194402*
X626037*
X625000Y193883*
X642637Y188177D02*
X644713D01*
X643675D02*
Y194402D01*
X642637Y193364*
X649900Y188177D02*
X654050Y194402D01*
X649900*
X658200Y190252D02*
X662350D01*
X610994Y178217D02*
Y184442D01*
X608400D02*
X613587D01*
X616700Y178217D02*
X621887Y184442D01*
X616700D02*
X621887Y178217D01*
X626037D02*
X628113D01*
X627075D02*
Y184442D01*
X626037Y183404*
X642637Y178217D02*
X644713D01*
X643675D02*
Y184442D01*
X642637Y183404*
X651456Y181330D02*
X652494D01*
X653531Y181848*
X654050Y182886*
X653531Y183923*
X652494Y184442*
X651456*
X650419Y183923*
X649900Y182886*
X650419Y181848*
X651456Y181330*
X650419Y180811*
X649900Y179773*
X650419Y178736*
X651456Y178217*
X652494*
X653531Y178736*
X654050Y179773*
X653531Y180811*
X652494Y181330*
X658200Y180292D02*
X662350D01*
X608400Y168257D02*
Y174482D01*
X612031*
X613069Y173963*
X613587Y172926*
X613069Y171888*
X612031Y171370*
X608400*
X612031D02*
X613587Y168257D01*
X616700D02*
X621887Y174482D01*
X616700D02*
X621887Y168257D01*
X626037D02*
X628113D01*
X627075D02*
Y174482D01*
X626037Y173444*
X642637Y168257D02*
X644713D01*
X643675D02*
Y174482D01*
X642637Y173444*
X651456Y168257D02*
X652494Y168776D01*
X653531Y169813*
X654050Y171370*
Y172926*
X653531Y173963*
X652494Y174482*
X651456*
X650419Y173963*
X649900Y172926*
X650419Y171888*
X651456Y171370*
X652494*
X653531Y171888*
X654050Y172926*
X658200Y170332D02*
X662350D01*
X608400Y159854D02*
X608919Y158816D01*
X609956Y158297*
X612031*
X613069Y158816*
X613587Y159854*
X613069Y160891*
X612031Y161410*
X609956*
X608919Y161928*
X608400Y162966*
X608919Y164004*
X609956Y164522*
X612031*
X613069Y164004*
X613587Y162966*
X616700Y158297D02*
Y164522D01*
X619813*
X620850Y164004*
X621369Y163485*
X621887Y162447*
Y160372*
X621369Y159335*
X620850Y158816*
X619813Y158297*
X616700*
X625000D02*
X627594Y164522D01*
X630187Y158297*
X626037Y160891D02*
X629150D01*
X645750Y158297D02*
X641600D01*
X645231Y161928*
X645750Y162966*
X645231Y164004*
X644194Y164522*
X642637*
X641600Y164004*
X650419Y158816D02*
X651456Y158297D01*
X652494*
X653531Y158816*
X654050Y159854*
Y162966*
X653531Y164004*
X652494Y164522*
X651456*
X650419Y164004*
X649900Y162966*
Y159854*
X650419Y158816*
X653531Y164004*
X658200Y160372D02*
X662350D01*
X608400Y149894D02*
X608919Y148856D01*
X609956Y148337*
X612031*
X613069Y148856*
X613587Y149894*
X613069Y150931*
X612031Y151450*
X609956*
X608919Y151969*
X608400Y153006*
X608919Y154044*
X609956Y154562*
X612031*
X613069Y154044*
X613587Y153006*
X621887Y149375D02*
X621369Y148856D01*
X620331Y148337*
X618775*
X617737Y148856*
X617219Y149375*
X616700Y150412*
Y152487*
X617219Y153525*
X617737Y154044*
X618775Y154562*
X620331*
X621369Y154044*
X621887Y153525*
X625000Y154562D02*
Y148337D01*
X630187*
X645750D02*
X641600D01*
X645231Y151969*
X645750Y153006*
X645231Y154044*
X644194Y154562*
X642637*
X641600Y154044*
X650937Y148337D02*
X653013D01*
X651975D02*
Y154562D01*
X650937Y153525*
X658200Y150412D02*
X662350D01*
X649900Y303056D02*
X654050Y309281D01*
X649900*
X658200Y305131D02*
X662350D01*
X649900Y294653D02*
X650419Y295690D01*
X651456Y296209*
X652494*
X653531Y295690*
X654050Y294653*
X653531Y293615*
X652494Y293096*
X651456*
X650419Y293615*
X649900Y294653*
Y296209*
X650419Y297765*
X651456Y298803*
X652494Y299321*
X658200Y295171D02*
X662350D01*
X649900Y283656D02*
X650937Y283137D01*
X652494*
X653531Y283656*
X654050Y284693*
Y285211*
X653531Y286249*
X652494Y286768*
X649900*
Y289361*
X654050*
X658200Y285211D02*
X662350D01*
X652494Y273177D02*
Y279402D01*
X649900Y275252*
X654050*
X658200D02*
X662350D01*
X650419Y263736D02*
X651456Y263217D01*
X652494*
X653531Y263736*
X654050Y264773*
X653531Y265811*
X652494Y266330*
X651456*
X652494D02*
X653531Y266848D01*
X654050Y267886*
X653531Y268923*
X652494Y269442*
X651456*
X650419Y268923*
X658200Y265292D02*
X662350D01*
X654050Y253257D02*
X649900D01*
X653531Y256888*
X654050Y257926*
X653531Y258963*
X652494Y259482*
X650937*
X649900Y258963*
X658200Y255332D02*
X662350D01*
X619294Y243297D02*
Y249522D01*
X616700D02*
X621887D01*
X625000Y243297D02*
X630187Y249522D01*
X625000D02*
X630187Y243297D01*
X633819Y243816D02*
X634856Y243297D01*
X635894*
X636931Y243816*
X637450Y244854*
Y247966*
X636931Y249004*
X635894Y249522*
X634856*
X633819Y249004*
X633300Y247966*
Y244854*
X633819Y243816*
X636931Y249004*
X650937Y243297D02*
X653013D01*
X651975D02*
Y249522D01*
X650937Y248485*
X658200Y245372D02*
X662350D01*
X616700Y233337D02*
Y239562D01*
X620331*
X621369Y239044*
X621887Y238006*
X621369Y236969*
X620331Y236450*
X616700*
X620331D02*
X621887Y233337D01*
X625000D02*
X630187Y239562D01*
X625000D02*
X630187Y233337D01*
X633819Y233856D02*
X634856Y233337D01*
X635894*
X636931Y233856*
X637450Y234894*
Y238006*
X636931Y239044*
X635894Y239562*
X634856*
X633819Y239044*
X633300Y238006*
Y234894*
X633819Y233856*
X636931Y239044*
X650419Y233856D02*
X651456Y233337D01*
X652494*
X653531Y233856*
X654050Y234894*
Y238006*
X653531Y239044*
X652494Y239562*
X651456*
X650419Y239044*
X649900Y238006*
Y234894*
X650419Y233856*
X653531Y239044*
X658200Y235412D02*
X662350D01*
X625000Y409613D02*
X625519Y408575D01*
X626556Y408056*
X628631*
X629669Y408575*
X630187Y409613*
X629669Y410650*
X628631Y411169*
X626556*
X625519Y411687*
X625000Y412725*
X625519Y413763*
X626556Y414281*
X628631*
X629669Y413763*
X630187Y412725*
X638487Y409094D02*
X637969Y408575D01*
X636931Y408056*
X635375*
X634337Y408575*
X633819Y409094*
X633300Y410131*
Y412206*
X633819Y413244*
X634337Y413763*
X635375Y414281*
X636931*
X637969Y413763*
X638487Y413244*
X641600Y414281D02*
Y408056D01*
X646787*
X650937D02*
X653013D01*
X651975D02*
Y414281D01*
X650937Y413244*
X658200Y410131D02*
X662350D01*
X625000Y399653D02*
X625519Y398615D01*
X626556Y398096*
X628631*
X629669Y398615*
X630187Y399653*
X629669Y400690*
X628631Y401209*
X626556*
X625519Y401728*
X625000Y402765*
X625519Y403803*
X626556Y404321*
X628631*
X629669Y403803*
X630187Y402765*
X633300Y398096D02*
Y404321D01*
X636413*
X637450Y403803*
X637969Y403284*
X638487Y402246*
Y400171*
X637969Y399134*
X637450Y398615*
X636413Y398096*
X633300*
X641600D02*
X644194Y404321D01*
X646787Y398096*
X642637Y400690D02*
X645750D01*
X650937Y398096D02*
X653013D01*
X651975D02*
Y404321D01*
X650937Y403284*
X658200Y400171D02*
X662350D01*
X625000Y388137D02*
X627594Y394361D01*
X630187Y388137*
X626037Y390730D02*
X629150D01*
X633300Y388137D02*
Y394361D01*
X636931*
X637969Y393843*
X638487Y392806*
X637969Y391768*
X636931Y391249*
X633300*
X636931D02*
X638487Y388137D01*
X641600D02*
Y394361D01*
X646787*
X645750Y391249D02*
X641600D01*
Y388137D02*
X646787D01*
X649900D02*
Y394361D01*
X655087*
X654050Y391249D02*
X649900D01*
X658200Y390211D02*
X662350D01*
X636931Y380770D02*
X638487D01*
Y380252*
X637969Y379214*
X637450Y378696*
X636413Y378177*
X635375*
X634337Y378696*
X633819Y379214*
X633300Y380252*
Y382327*
X633819Y383364*
X634337Y383883*
X635375Y384402*
X636413*
X637450Y383883*
X637969Y383364*
X638487Y382327*
X641600Y378177D02*
Y384402D01*
X646787Y378177*
Y384402*
X649900Y378177D02*
Y384402D01*
X653013*
X654050Y383883*
X654569Y383364*
X655087Y382327*
Y380252*
X654569Y379214*
X654050Y378696*
X653013Y378177*
X649900*
X658200Y380252D02*
X662350D01*
X642637Y368217D02*
X644713D01*
X643675D02*
Y374442D01*
X642637Y373404*
X650419Y368736D02*
X651456Y368217D01*
X652494*
X653531Y368736*
X654050Y369773*
X653531Y370811*
X652494Y371330*
X651456*
X652494D02*
X653531Y371848D01*
X654050Y372886*
X653531Y373923*
X652494Y374442*
X651456*
X650419Y373923*
X658200Y370292D02*
X662350D01*
X642637Y358257D02*
X644713D01*
X643675D02*
Y364482D01*
X642637Y363444*
X654050Y358257D02*
X649900D01*
X653531Y361888*
X654050Y362926*
X653531Y363963*
X652494Y364482*
X650937*
X649900Y363963*
X658200Y360332D02*
X662350D01*
X642637Y348297D02*
X644713D01*
X643675D02*
Y354522D01*
X642637Y353485*
X650937Y348297D02*
X653013D01*
X651975D02*
Y354522D01*
X650937Y353485*
X658200Y350372D02*
X662350D01*
X642637Y338337D02*
X644713D01*
X643675D02*
Y344562D01*
X642637Y343525*
X650419Y338856D02*
X651456Y338337D01*
X652494*
X653531Y338856*
X654050Y339894*
Y343006*
X653531Y344044*
X652494Y344562*
X651456*
X650419Y344044*
X649900Y343006*
Y339894*
X650419Y338856*
X653531Y344044*
X658200Y340412D02*
X662350D01*
X651456Y328378D02*
X652494Y328896D01*
X653531Y329934*
X654050Y331490*
Y333046*
X653531Y334084*
X652494Y334602*
X651456*
X650419Y334084*
X649900Y333046*
X650419Y332009*
X651456Y331490*
X652494*
X653531Y332009*
X654050Y333046*
X658200Y330452D02*
X662350D01*
X651456Y321530D02*
X652494D01*
X653531Y322049*
X654050Y323087*
X653531Y324124*
X652494Y324643*
X651456*
X650419Y324124*
X649900Y323087*
X650419Y322049*
X651456Y321530*
X650419Y321011*
X649900Y319974*
X650419Y318937*
X651456Y318418*
X652494*
X653531Y318937*
X654050Y319974*
X653531Y321011*
X652494Y321530*
X658200Y320493D02*
X662350D01*
D02*
D11*
X250Y46500D02*
X62750D01*
X250Y496500D02*
X62750D01*
X7750Y491500D02*
X10250Y496500D01*
X12750Y491500*
X10250Y46500D02*
Y246500D01*
Y496500D02*
Y301500D01*
X12750Y51500D02*
X10250Y46500D01*
X7750Y51500*
X20250Y471500D02*
X407750D01*
X22750Y71500D02*
X409000D01*
X27750Y466500D02*
X30250Y471500D01*
X32750Y466500*
X30250Y71500D02*
Y246500D01*
Y471500D02*
Y301500D01*
X32750Y76500D02*
X30250Y71500D01*
X27750Y76500*
X47750Y329000D02*
X50250Y334000D01*
X52750Y329000*
X50250Y269000D02*
Y279000D01*
Y334000D02*
Y321500D01*
X52750Y274000D02*
X50250Y269000D01*
X47750Y274000*
X65250Y7750D02*
X212750D01*
X65250Y44000D02*
Y250D01*
Y504000D02*
Y602750D01*
Y595250D02*
X90250D01*
X70250Y5250D02*
X65250Y7750D01*
X70250Y10250*
Y24000D02*
X65250Y26500D01*
X70250Y29000*
Y592750D02*
X65250Y595250D01*
X70250Y597750*
X75250Y269000D02*
X42750D01*
X77750Y334000D02*
X45250D01*
X85250Y29000D02*
X90250Y26500D01*
X85250Y24000*
X90250Y26500D02*
X65250D01*
X90250D02*
X205250D01*
X90250Y56500D02*
Y489000D01*
Y72750D02*
Y22750D01*
X95250Y24000D02*
X90250Y26500D01*
X95250Y29000*
X128930Y78851D02*
Y83344D01*
X127931Y81846*
X129679*
X128930Y83219*
X129522Y74797D02*
X129678Y74641D01*
X129834Y74328*
Y73860*
X129678Y73547*
X129522Y73391*
X129209Y73235*
X128584*
X128272Y73391*
X128115Y73547*
X127959Y73860*
Y74328*
X128115Y74641*
X128272Y74797*
X127959Y75735D02*
X129834Y75891D01*
X128896Y76516*
X129834Y77141*
X127959Y77297*
X144000Y597750D02*
X149000Y595250D01*
X144000Y592750*
X149000Y584000D02*
Y604000D01*
Y595250D02*
X125250D01*
X149000D02*
X174000D01*
X150250Y569000D02*
G75*
G03X147750Y574000I-1250J2500D01*
G01*
G75*
G03X150250Y569000I1250J-2500*
G01*
X153930Y78851D02*
Y83344D01*
X152931Y81846*
X154679*
X153930Y83219*
X154000Y592750D02*
X149000Y595250D01*
X154000Y597750*
X154522Y74797D02*
X154678Y74641D01*
X154834Y74328*
Y73860*
X154678Y73547*
X154522Y73391*
X154209Y73235*
X153584*
X153272Y73391*
X153115Y73547*
X152959Y73860*
Y74328*
X153115Y74641*
X153272Y74797*
X152959Y75735D02*
X154834Y75891D01*
X153896Y76516*
X154834Y77141*
X152959Y77297*
X179250Y453000D02*
Y497000D01*
X121250*
Y453000*
X179250*
X211500Y596500D02*
X240250D01*
X235250Y599000D02*
X240250Y596500D01*
X235250Y594000*
X238930Y78851D02*
Y83344D01*
X237931Y81846*
X239679*
X238930Y83219*
X240250Y569000D02*
G75*
G03X237750Y574000I-1250J2500D01*
G01*
G75*
G03X240250Y569000I1250J-2500*
G01*
Y584000D02*
Y604000D01*
Y596500D02*
X265250D01*
X239522Y74797D02*
X239678Y74641D01*
X239834Y74328*
Y73860*
X239678Y73547*
X239522Y73391*
X239209Y73235*
X238584*
X238272Y73391*
X238115Y73547*
X237959Y73860*
Y74328*
X238115Y74641*
X238272Y74797*
X237959Y75735D02*
X239834Y75891D01*
X238896Y76516*
X239834Y77141*
X237959Y77297*
X245250Y594000D02*
X240250Y596500D01*
X245250Y599000*
X258930Y78851D02*
Y83344D01*
X257931Y81846*
X259679*
X258930Y83219*
X259522Y74797D02*
X259678Y74641D01*
X259834Y74328*
Y73860*
X259678Y73547*
X259522Y73391*
X259209Y73235*
X258584*
X258272Y73391*
X258115Y73547*
X257959Y73860*
Y74328*
X258115Y74641*
X258272Y74797*
X257959Y75735D02*
X259834Y75891D01*
X258896Y76516*
X259834Y77141*
X257959Y77297*
X269250Y453000D02*
Y497000D01*
X211250*
Y453000*
X269250*
X285250Y26500D02*
X390250D01*
X302750Y597750D02*
X331500D01*
X326500Y600250D02*
X331500Y597750D01*
X326500Y595250*
X330250Y569000D02*
G75*
G03X327750Y574000I-1250J2500D01*
G01*
G75*
G03X330250Y569000I1250J-2500*
G01*
X331500Y584000D02*
Y604000D01*
Y597750D02*
X356500D01*
X336500Y595250D02*
X331500Y597750D01*
X336500Y600250*
X359250Y453000D02*
Y497000D01*
X301250*
Y453000*
X359250*
X385250Y29000D02*
X390250Y26500D01*
X385250Y24000*
X390250Y55250D02*
Y489000D01*
Y71500D02*
Y21500D01*
X395250Y24000D02*
X390250Y26500D01*
X395250Y29000*
X410250Y10250D02*
X415250Y7750D01*
X410250Y5250*
Y29000D02*
X415250Y26500D01*
X410250Y24000*
Y600250D02*
X415250Y597750D01*
X410250Y595250*
X415250Y7750D02*
X260250D01*
X415250Y26500D02*
X391500D01*
X415250Y44000D02*
Y5250D01*
Y504000D02*
Y602750D01*
Y597750D02*
X391500D01*
X471500Y104000D02*
G75*
G03X486500Y114000I7500J5000D01*
G01*
G75*
G03X471500Y104000I-7500J-5000*
G01*
Y109000D02*
X486500D01*
X471500Y424000D02*
G75*
G03X486500Y434000I7500J5000D01*
G01*
G75*
G03X471500Y424000I-7500J-5000*
G01*
Y429000D02*
X486500D01*
X476500Y121500D02*
G75*
G03X481500Y126500I2500J2500D01*
G01*
G75*
G03X476500Y121500I-2500J-2500*
G01*
Y131500D02*
G75*
G03X481500Y136500I2500J2500D01*
G01*
G75*
G03X476500Y131500I-2500J-2500*
G01*
Y141500D02*
G75*
G03X481500Y146500I2500J2500D01*
G01*
G75*
G03X476500Y141500I-2500J-2500*
G01*
Y151500D02*
G75*
G03X481500Y156500I2500J2500D01*
G01*
G75*
G03X476500Y151500I-2500J-2500*
G01*
Y161500D02*
G75*
G03X481500Y166500I2500J2500D01*
G01*
G75*
G03X476500Y161500I-2500J-2500*
G01*
Y171500D02*
G75*
G03X481500Y176500I2500J2500D01*
G01*
G75*
G03X476500Y171500I-2500J-2500*
G01*
Y181500D02*
G75*
G03X481500Y186500I2500J2500D01*
G01*
G75*
G03X476500Y181500I-2500J-2500*
G01*
Y191500D02*
G75*
G03X481500Y196500I2500J2500D01*
G01*
G75*
G03X476500Y191500I-2500J-2500*
G01*
Y206500D02*
G75*
G03X481500Y211500I2500J2500D01*
G01*
G75*
G03X476500Y206500I-2500J-2500*
G01*
Y216500D02*
G75*
G03X481500Y221500I2500J2500D01*
G01*
G75*
G03X476500Y216500I-2500J-2500*
G01*
Y226500D02*
G75*
G03X481500Y231500I2500J2500D01*
G01*
G75*
G03X476500Y226500I-2500J-2500*
G01*
Y236500D02*
G75*
G03X481500Y241500I2500J2500D01*
G01*
G75*
G03X476500Y236500I-2500J-2500*
G01*
Y246500D02*
G75*
G03X481500Y251500I2500J2500D01*
G01*
G75*
G03X476500Y246500I-2500J-2500*
G01*
Y256500D02*
G75*
G03X481500Y261500I2500J2500D01*
G01*
G75*
G03X476500Y256500I-2500J-2500*
G01*
Y266500D02*
G75*
G03X481500Y271500I2500J2500D01*
G01*
G75*
G03X476500Y266500I-2500J-2500*
G01*
Y276500D02*
G75*
G03X481500Y281500I2500J2500D01*
G01*
G75*
G03X476500Y276500I-2500J-2500*
G01*
Y291500D02*
G75*
G03X481500Y296500I2500J2500D01*
G01*
G75*
G03X476500Y291500I-2500J-2500*
G01*
Y301500D02*
G75*
G03X481500Y306500I2500J2500D01*
G01*
G75*
G03X476500Y301500I-2500J-2500*
G01*
Y311500D02*
G75*
G03X481500Y316500I2500J2500D01*
G01*
G75*
G03X476500Y311500I-2500J-2500*
G01*
Y321500D02*
G75*
G03X481500Y326500I2500J2500D01*
G01*
G75*
G03X476500Y321500I-2500J-2500*
G01*
Y331500D02*
G75*
G03X481500Y336500I2500J2500D01*
G01*
G75*
G03X476500Y331500I-2500J-2500*
G01*
Y341500D02*
G75*
G03X481500Y346500I2500J2500D01*
G01*
G75*
G03X476500Y341500I-2500J-2500*
G01*
Y351500D02*
G75*
G03X481500Y356500I2500J2500D01*
G01*
G75*
G03X476500Y351500I-2500J-2500*
G01*
Y361500D02*
G75*
G03X481500Y366500I2500J2500D01*
G01*
G75*
G03X476500Y361500I-2500J-2500*
G01*
X479000Y116500D02*
Y101500D01*
Y436500D02*
Y421500D01*
X491500Y224000D02*
G75*
G03X506500Y234000I7500J5000D01*
G01*
G75*
G03X491500Y224000I-7500J-5000*
G01*
Y229000D02*
X506500D01*
X496500Y101500D02*
G75*
G03X501500Y106500I2500J2500D01*
G01*
G75*
G03X496500Y101500I-2500J-2500*
G01*
Y111500D02*
G75*
G03X501500Y116500I2500J2500D01*
G01*
G75*
G03X496500Y111500I-2500J-2500*
G01*
X499000Y236500D02*
Y221500D01*
X506500Y101500D02*
G75*
G03X511500Y106500I2500J2500D01*
G01*
G75*
G03X506500Y101500I-2500J-2500*
G01*
Y111500D02*
G75*
G03X511500Y116500I2500J2500D01*
G01*
G75*
G03X506500Y111500I-2500J-2500*
G01*
X516500Y101500D02*
G75*
G03X521500Y106500I2500J2500D01*
G01*
G75*
G03X516500Y101500I-2500J-2500*
G01*
Y111500D02*
G75*
G03X521500Y116500I2500J2500D01*
G01*
G75*
G03X516500Y111500I-2500J-2500*
G01*
X526500Y101500D02*
G75*
G03X531500Y106500I2500J2500D01*
G01*
G75*
G03X526500Y101500I-2500J-2500*
G01*
Y111500D02*
G75*
G03X531500Y116500I2500J2500D01*
G01*
G75*
G03X526500Y111500I-2500J-2500*
G01*
X536500Y101500D02*
G75*
G03X541500Y106500I2500J2500D01*
G01*
G75*
G03X536500Y101500I-2500J-2500*
G01*
Y111500D02*
G75*
G03X541500Y116500I2500J2500D01*
G01*
G75*
G03X536500Y111500I-2500J-2500*
G01*
X546500Y101500D02*
G75*
G03X551500Y106500I2500J2500D01*
G01*
G75*
G03X546500Y101500I-2500J-2500*
G01*
Y111500D02*
G75*
G03X551500Y116500I2500J2500D01*
G01*
G75*
G03X546500Y111500I-2500J-2500*
G01*
X556500Y101500D02*
G75*
G03X561500Y106500I2500J2500D01*
G01*
G75*
G03X556500Y101500I-2500J-2500*
G01*
Y111500D02*
G75*
G03X561500Y116500I2500J2500D01*
G01*
G75*
G03X556500Y111500I-2500J-2500*
G01*
X566500Y101500D02*
G75*
G03X571500Y106500I2500J2500D01*
G01*
G75*
G03X566500Y101500I-2500J-2500*
G01*
Y111500D02*
G75*
G03X571500Y116500I2500J2500D01*
G01*
G75*
G03X566500Y111500I-2500J-2500*
G01*
X576500Y101500D02*
G75*
G03X581500Y106500I2500J2500D01*
G01*
G75*
G03X576500Y101500I-2500J-2500*
G01*
Y111500D02*
G75*
G03X581500Y116500I2500J2500D01*
G01*
G75*
G03X576500Y111500I-2500J-2500*
G01*
X586500Y101500D02*
G75*
G03X591500Y106500I2500J2500D01*
G01*
G75*
G03X586500Y101500I-2500J-2500*
G01*
Y111500D02*
G75*
G03X591500Y116500I2500J2500D01*
G01*
G75*
G03X586500Y111500I-2500J-2500*
G01*
X596500Y101500D02*
G75*
G03X601500Y106500I2500J2500D01*
G01*
G75*
G03X596500Y101500I-2500J-2500*
G01*
Y111500D02*
G75*
G03X601500Y116500I2500J2500D01*
G01*
G75*
G03X596500Y111500I-2500J-2500*
G01*
X601500Y224000D02*
G75*
G03X616500Y234000I7500J5000D01*
G01*
G75*
G03X601500Y224000I-7500J-5000*
G01*
Y229000D02*
X616500D01*
X606500Y101500D02*
G75*
G03X611500Y106500I2500J2500D01*
G01*
G75*
G03X606500Y101500I-2500J-2500*
G01*
Y111500D02*
G75*
G03X611500Y116500I2500J2500D01*
G01*
G75*
G03X606500Y111500I-2500J-2500*
G01*
X609000Y236500D02*
Y221500D01*
X616500Y101500D02*
G75*
G03X621500Y106500I2500J2500D01*
G01*
G75*
G03X616500Y101500I-2500J-2500*
G01*
Y111500D02*
G75*
G03X621500Y116500I2500J2500D01*
G01*
G75*
G03X616500Y111500I-2500J-2500*
G01*
X626500Y101500D02*
G75*
G03X631500Y106500I2500J2500D01*
G01*
G75*
G03X626500Y101500I-2500J-2500*
G01*
Y111500D02*
G75*
G03X631500Y116500I2500J2500D01*
G01*
G75*
G03X626500Y111500I-2500J-2500*
G01*
X636500Y101500D02*
G75*
G03X641500Y106500I2500J2500D01*
G01*
G75*
G03X636500Y101500I-2500J-2500*
G01*
Y111500D02*
G75*
G03X641500Y116500I2500J2500D01*
G01*
G75*
G03X636500Y111500I-2500J-2500*
G01*
X646500Y101500D02*
G75*
G03X651500Y106500I2500J2500D01*
G01*
G75*
G03X646500Y101500I-2500J-2500*
G01*
Y111500D02*
G75*
G03X651500Y116500I2500J2500D01*
G01*
G75*
G03X646500Y111500I-2500J-2500*
G01*
X656500Y101500D02*
G75*
G03X661500Y106500I2500J2500D01*
G01*
G75*
G03X656500Y101500I-2500J-2500*
G01*
Y111500D02*
G75*
G03X661500Y116500I2500J2500D01*
G01*
G75*
G03X656500Y111500I-2500J-2500*
G01*
X661500Y124000D02*
G75*
G03X676500Y134000I7500J5000D01*
G01*
G75*
G03X661500Y124000I-7500J-5000*
G01*
Y129000D02*
X676500D01*
X661500Y424000D02*
G75*
G03X676500Y434000I7500J5000D01*
G01*
G75*
G03X661500Y424000I-7500J-5000*
G01*
Y429000D02*
X676500D01*
X666500Y101500D02*
G75*
G03X671500Y106500I2500J2500D01*
G01*
G75*
G03X666500Y101500I-2500J-2500*
G01*
Y111500D02*
G75*
G03X671500Y116500I2500J2500D01*
G01*
G75*
G03X666500Y111500I-2500J-2500*
G01*
Y146500D02*
G75*
G03X671500Y151500I2500J2500D01*
G01*
G75*
G03X666500Y146500I-2500J-2500*
G01*
Y156500D02*
G75*
G03X671500Y161500I2500J2500D01*
G01*
G75*
G03X666500Y156500I-2500J-2500*
G01*
Y166500D02*
G75*
G03X671500Y171500I2500J2500D01*
G01*
G75*
G03X666500Y166500I-2500J-2500*
G01*
Y176500D02*
G75*
G03X671500Y181500I2500J2500D01*
G01*
G75*
G03X666500Y176500I-2500J-2500*
G01*
Y186500D02*
G75*
G03X671500Y191500I2500J2500D01*
G01*
G75*
G03X666500Y186500I-2500J-2500*
G01*
Y196500D02*
G75*
G03X671500Y201500I2500J2500D01*
G01*
G75*
G03X666500Y196500I-2500J-2500*
G01*
Y206500D02*
G75*
G03X671500Y211500I2500J2500D01*
G01*
G75*
G03X666500Y206500I-2500J-2500*
G01*
Y216500D02*
G75*
G03X671500Y221500I2500J2500D01*
G01*
G75*
G03X666500Y216500I-2500J-2500*
G01*
Y231500D02*
G75*
G03X671500Y236500I2500J2500D01*
G01*
G75*
G03X666500Y231500I-2500J-2500*
G01*
Y241500D02*
G75*
G03X671500Y246500I2500J2500D01*
G01*
G75*
G03X666500Y241500I-2500J-2500*
G01*
Y251500D02*
G75*
G03X671500Y256500I2500J2500D01*
G01*
G75*
G03X666500Y251500I-2500J-2500*
G01*
Y261500D02*
G75*
G03X671500Y266500I2500J2500D01*
G01*
G75*
G03X666500Y261500I-2500J-2500*
G01*
Y271500D02*
G75*
G03X671500Y276500I2500J2500D01*
G01*
G75*
G03X666500Y271500I-2500J-2500*
G01*
Y281500D02*
G75*
G03X671500Y286500I2500J2500D01*
G01*
G75*
G03X666500Y281500I-2500J-2500*
G01*
Y291500D02*
G75*
G03X671500Y296500I2500J2500D01*
G01*
G75*
G03X666500Y291500I-2500J-2500*
G01*
Y301500D02*
G75*
G03X671500Y306500I2500J2500D01*
G01*
G75*
G03X666500Y301500I-2500J-2500*
G01*
Y316500D02*
G75*
G03X671500Y321500I2500J2500D01*
G01*
G75*
G03X666500Y316500I-2500J-2500*
G01*
Y326500D02*
G75*
G03X671500Y331500I2500J2500D01*
G01*
G75*
G03X666500Y326500I-2500J-2500*
G01*
Y336500D02*
G75*
G03X671500Y341500I2500J2500D01*
G01*
G75*
G03X666500Y336500I-2500J-2500*
G01*
Y346500D02*
G75*
G03X671500Y351500I2500J2500D01*
G01*
G75*
G03X666500Y346500I-2500J-2500*
G01*
Y356500D02*
G75*
G03X671500Y361500I2500J2500D01*
G01*
G75*
G03X666500Y356500I-2500J-2500*
G01*
Y366500D02*
G75*
G03X671500Y371500I2500J2500D01*
G01*
G75*
G03X666500Y366500I-2500J-2500*
G01*
Y376500D02*
G75*
G03X671500Y381500I2500J2500D01*
G01*
G75*
G03X666500Y376500I-2500J-2500*
G01*
Y386500D02*
G75*
G03X671500Y391500I2500J2500D01*
G01*
G75*
G03X666500Y386500I-2500J-2500*
G01*
Y396500D02*
G75*
G03X671500Y401500I2500J2500D01*
G01*
G75*
G03X666500Y396500I-2500J-2500*
G01*
Y406500D02*
G75*
G03X671500Y411500I2500J2500D01*
G01*
G75*
G03X666500Y406500I-2500J-2500*
G01*
X669000Y136500D02*
Y121500D01*
Y436500D02*
Y421500D01*
D02*
D12*
X521500Y462125D02*
X524625Y469625D01*
X527750Y462125*
X522750Y465250D02*
X526500D01*
X531500Y462125D02*
Y469625D01*
X535875*
X537125Y469000*
X537750Y467750*
X537125Y466500*
X535875Y465875*
X531500*
X535875D02*
X537750Y462125D01*
X541500D02*
Y469625D01*
X545250*
X546500Y469000*
X547125Y468375*
X547750Y467125*
Y464625*
X547125Y463375*
X546500Y462750*
X545250Y462125*
X541500*
X551500Y469625D02*
Y464000D01*
X552125Y462750*
X553375Y462125*
X555875*
X557125Y462750*
X557750Y464000*
Y469625*
X563375Y462125D02*
X565875D01*
X564625D02*
Y469625D01*
X563375D02*
X565875D01*
X571500Y462125D02*
Y469625D01*
X577750Y462125*
Y469625*
X581500Y464625D02*
Y467125D01*
X582125Y468375*
X582750Y469000*
X584000Y469625*
X585250*
X586500Y469000*
X587125Y468375*
X587750Y467125*
Y464625*
X587125Y463375*
X586500Y462750*
X585250Y462125*
X584000*
X582750Y462750*
X582125Y463375*
X581500Y464625*
X601500Y462125D02*
Y469625D01*
X605250*
X606500Y469000*
X607125Y468375*
X607750Y467125*
Y464625*
X607125Y463375*
X606500Y462750*
X605250Y462125*
X601500*
X611500Y469625D02*
Y464000D01*
X612125Y462750*
X613375Y462125*
X615875*
X617125Y462750*
X617750Y464000*
Y469625*
X621500Y462125D02*
Y469625D01*
X627750*
X626500Y465875D02*
X621500D01*
Y462125D02*
X627750D01*
X541500Y452625D02*
Y455125D01*
X542125Y456375*
X542750Y457000*
X544000Y457625*
X545250*
X546500Y457000*
X547125Y456375*
X547750Y455125*
Y452625*
X547125Y451375*
X546500Y450750*
X545250Y450125*
X544000*
X542750Y450750*
X542125Y451375*
X541500Y452625*
X551500Y457625D02*
Y452000D01*
X552125Y450750*
X553375Y450125*
X555875*
X557125Y450750*
X557750Y452000*
Y457625*
X564625Y450125D02*
Y457625D01*
X561500D02*
X567750D01*
X571500D02*
Y450125D01*
X577750*
X583375D02*
X585875D01*
X584625D02*
Y457625D01*
X583375D02*
X585875D01*
X591500Y450125D02*
Y457625D01*
X597750Y450125*
Y457625*
X601500Y450125D02*
Y457625D01*
X607750*
X606500Y453875D02*
X601500D01*
Y450125D02*
X607750D01*
D02*
D13*
X679000Y99000D02*
X619000D01*
X609000Y89000*
X489000*
X479000Y99000*
X469000*
D02*
D74*
X130250Y504000D02*
X170250D01*
X130250Y509000D02*
X170250D01*
X130250Y514000D02*
X170250D01*
X130250Y519000D02*
X170250D01*
X130250Y524000D02*
X170250D01*
Y529000D02*
Y581500D01*
X130250*
Y529000*
X170250*
X175250Y497301D02*
Y529000D01*
X125250*
Y497301*
X175250*
X220250Y504000D02*
X260250D01*
X220250Y509000D02*
X260250D01*
X220250Y514000D02*
X260250D01*
X220250Y519000D02*
X260250D01*
X220250Y524000D02*
X260250D01*
Y529000D02*
Y581500D01*
X220250*
Y529000*
X260250*
X265250Y497301D02*
Y529000D01*
X215250*
Y497301*
X265250*
X310250Y504000D02*
X350250D01*
X310250Y509000D02*
X350250D01*
X310250Y514000D02*
X350250D01*
X310250Y519000D02*
X350250D01*
X310250Y524000D02*
X350250D01*
Y529000D02*
Y581500D01*
X310250*
Y529000*
X350250*
X355250Y497301D02*
Y529000D01*
X305250*
Y497301*
X355250*
D02*
D128*
X469000Y99000D02*
Y489000D01*
X679000*
Y99000*
X0Y0D02*
M02*
