G04 EasyPC Gerber Version 20.0.2 Build 4112 *
%FSLAX35Y35*%
%MOIN*%
%ADD10C,0.00100*%
%ADD11C,0.00500*%
%ADD74C,0.00800*%
%ADD12C,0.01000*%
%ADD13C,0.01500*%
X0Y0D02*
D02*
D10*
X84250Y104750D02*
X85250D01*
X84750D02*
Y107750D01*
X84250Y107250*
X88000Y105000D02*
X88500Y104750D01*
X89000*
X89500Y105000*
X89750Y105500*
Y107000*
X89500Y107500*
X89000Y107750*
X88500*
X88000Y107500*
X87750Y107000*
Y105500*
X88000Y105000*
X89500Y107500*
X88250Y194750D02*
X89250D01*
X88750D02*
Y197750D01*
X88250Y197250*
X227500Y411500D02*
Y411000D01*
X227750Y410500*
X228250Y410250*
X228750Y410500*
X229000Y411000*
Y411500*
X228750Y412000*
X228250Y412250*
X227750Y412000*
X227500Y411500*
X227250Y412000*
X226750Y412250*
X226250Y412000*
X226000Y411500*
Y411000*
X226250Y410500*
X226750Y410250*
X227250Y410500*
X227500Y411000*
X298500D02*
Y410000D01*
Y410500D02*
X301500D01*
X301000Y411000*
D02*
D11*
X79313Y93687D02*
Y97437D01*
X77750D02*
X80875D01*
X82750Y93687D02*
Y97437D01*
X84937*
X85563Y97125*
X85875Y96500*
X85563Y95875*
X84937Y95563*
X82750*
X88375Y93687D02*
X89625D01*
X89000D02*
Y97437D01*
X88375Y96813*
X80250Y439000D02*
Y424000D01*
X105250*
Y439000*
X80250*
X81750Y249000D02*
X98750D01*
Y289000*
X81750*
Y249000*
Y314000D02*
X98750D01*
Y354000*
X81750*
Y314000*
X84000Y229000D02*
X101500D01*
Y226500*
X99000Y224000*
X101500Y221500*
Y219000*
X84000*
Y229000*
X85250Y453375D02*
X85563Y452750D01*
X86187Y452437*
X87437*
X88063Y452750*
X88375Y453375*
X88063Y454000*
X87437Y454313*
X86187*
X85563Y454625*
X85250Y455250*
X85563Y455875*
X86187Y456187*
X87437*
X88063Y455875*
X88375Y455250*
X90250Y456187D02*
X90563Y452437D01*
X91813Y454313*
X93063Y452437*
X93375Y456187*
X95875Y452437D02*
X97125D01*
X96500D02*
Y456187D01*
X95875Y455563*
X86750Y249000D02*
Y289000D01*
Y314000D02*
Y354000D01*
X87750Y296187D02*
Y293375D01*
X88063Y292750*
X88687Y292437*
X89937*
X90563Y292750*
X90875Y293375*
Y296187*
X95250Y292437D02*
X92750D01*
X94937Y294625*
X95250Y295250*
X94937Y295875*
X94313Y296187*
X93375*
X92750Y295875*
X87750Y361187D02*
Y358375D01*
X88063Y357750*
X88687Y357437*
X89937*
X90563Y357750*
X90875Y358375*
Y361187*
X93375Y357437D02*
X94625D01*
X94000D02*
Y361187D01*
X93375Y360563*
X92750Y99000D02*
X102750D01*
Y199000*
X92750*
Y99000*
X93305Y432826D02*
Y430327D01*
X100802*
Y432826*
X93305*
G36*
Y430327*
X100802*
Y432826*
X93305*
G37*
X95179Y431576D02*
G75*
G03X91430I-1874D01*
G01*
G75*
G03X95179I1874*
G01*
G36*
G75*
G03X91430I-1874*
G01*
G75*
G03X95179I1874*
G01*
G37*
X98303D02*
G75*
G03X88306I-4998D01*
G01*
G75*
G03X98303I4998*
G01*
X103375Y280563D02*
X103063Y280250D01*
X102437Y279937*
X101500*
X100875Y280250*
X100563Y280563*
X100250Y281187*
Y282437*
X100563Y283063*
X100875Y283375*
X101500Y283687*
X102437*
X103063Y283375*
X103375Y283063*
X105875Y279937D02*
X107125D01*
X106500D02*
Y283687D01*
X105875Y283063*
X102052Y431576D02*
G75*
G03X99553I-1250D01*
G01*
G75*
G03X102052I1250*
G01*
G36*
G75*
G03X99553I-1250*
G01*
G75*
G03X102052I1250*
G01*
G37*
X104000Y51187D02*
X107125Y54937D01*
X104000D02*
X107125Y51187D01*
X109000D02*
X112125D01*
X117125Y51813D02*
X116813Y51500D01*
X116187Y51187*
X115250*
X114625Y51500*
X114313Y51813*
X114000Y52437*
Y53687*
X114313Y54313*
X114625Y54625*
X115250Y54937*
X116187*
X116813Y54625*
X117125Y54313*
X119000Y51187D02*
Y54937D01*
X122125Y51187*
Y54937*
X125563Y51187D02*
Y54937D01*
X124000D02*
X127125D01*
X129000Y51187D02*
Y54937D01*
X131187*
X131813Y54625*
X132125Y54000*
X131813Y53375*
X131187Y53063*
X129000*
X131187D02*
X132125Y51187D01*
X105563Y112437D02*
Y116187D01*
X104000D02*
X107125D01*
X109000Y112437D02*
Y116187D01*
X111187*
X111813Y115875*
X112125Y115250*
X111813Y114625*
X111187Y114313*
X109000*
X114313Y112750D02*
X114937Y112437D01*
X115563*
X116187Y112750*
X116500Y113375*
X116187Y114000*
X115563Y114313*
X114937*
X115563D02*
X116187Y114625D01*
X116500Y115250*
X116187Y115875*
X115563Y116187*
X114937*
X114313Y115875*
X105563Y202437D02*
Y206187D01*
X104000D02*
X107125D01*
X109000Y202437D02*
Y206187D01*
X111187*
X111813Y205875*
X112125Y205250*
X111813Y204625*
X111187Y204313*
X109000*
X116500Y202437D02*
X114000D01*
X116187Y204625*
X116500Y205250*
X116187Y205875*
X115563Y206187*
X114625*
X114000Y205875*
X104000Y228687D02*
Y229937D01*
X104313Y230563*
X104625Y230875*
X105250Y231187*
X105875*
X106500Y230875*
X106813Y230563*
X107125Y229937*
Y228687*
X106813Y228063*
X106500Y227750*
X105875Y227437*
X105250*
X104625Y227750*
X104313Y228063*
X104000Y228687*
X106187Y228375D02*
X107125Y227437D01*
X111500D02*
X109000D01*
X111187Y229625*
X111500Y230250*
X111187Y230875*
X110563Y231187*
X109625*
X109000Y230875*
X105250Y357437D02*
Y361187D01*
X107437*
X108063Y360875*
X108375Y360250*
X108063Y359625*
X107437Y359313*
X105250*
X110250Y361187D02*
Y357437D01*
X113375*
X117750D02*
X115250D01*
X117437Y359625*
X117750Y360250*
X117437Y360875*
X116813Y361187*
X115875*
X115250Y360875*
X109000Y133687D02*
Y137437D01*
X111187*
X111813Y137125*
X112125Y136500*
X111813Y135875*
X111187Y135563*
X109000*
X111187D02*
X112125Y133687D01*
X115563D02*
Y137437D01*
X114000Y134937*
X116500*
X109000Y146187D02*
Y149937D01*
X111187*
X111813Y149625*
X112125Y149000*
X111813Y148375*
X111187Y148063*
X109000*
X111187D02*
X112125Y146187D01*
X114000Y146500D02*
X114625Y146187D01*
X115563*
X116187Y146500*
X116500Y147125*
Y147437*
X116187Y148063*
X115563Y148375*
X114000*
Y149937*
X116500*
X110250Y158687D02*
Y162437D01*
X112437*
X113063Y162125*
X113375Y161500*
X113063Y160875*
X112437Y160563*
X110250*
X112437D02*
X113375Y158687D01*
X117750D02*
X115250D01*
X117437Y160875*
X117750Y161500*
X117437Y162125*
X116813Y162437*
X115875*
X115250Y162125*
X110250Y173687D02*
Y177437D01*
X112437*
X113063Y177125*
X113375Y176500*
X113063Y175875*
X112437Y175563*
X110250*
X112437D02*
X113375Y173687D01*
X115875D02*
X117125D01*
X116500D02*
Y177437D01*
X115875Y176813*
X110250Y264000D02*
Y269000D01*
Y279000D02*
Y284000D01*
X112750Y336187D02*
Y339937D01*
X114625*
X115250Y339625*
X115563Y339313*
X115875Y338687*
Y337437*
X115563Y336813*
X115250Y336500*
X114625Y336187*
X112750*
X118375D02*
X119625D01*
X119000D02*
Y339937D01*
X118375Y339313*
X114000Y130250D02*
X119000D01*
X114000Y144000D02*
X119000D01*
X114000Y156500D02*
X119000D01*
X114000Y169000D02*
X119000D01*
X115250Y269000D02*
X105250D01*
Y279000*
X115250*
Y269000*
X116500Y57750D02*
X131500D01*
Y92750*
X116500*
Y57750*
X117198Y59381D02*
G75*
G03X122198Y61881I2500J1250D01*
G01*
G75*
G03X117198Y59381I-2500J-1250*
G01*
X117822Y62626D02*
X121567Y58757D01*
X119000Y125250D02*
Y135250D01*
X139000*
Y125250*
X119000*
Y139000D02*
Y149000D01*
X139000*
Y139000*
X119000*
Y151500D02*
Y161500D01*
X139000*
Y151500*
X119000*
Y164000D02*
Y174000D01*
X139000*
Y164000*
X119000*
X115250Y94937D02*
Y98687D01*
X117437*
X118063Y98375*
X118375Y97750*
X118063Y97125*
X117437Y96813*
X115250*
X117437D02*
X118375Y94937D01*
X120875D02*
X122125D01*
X121500D02*
Y98687D01*
X120875Y98063*
X125563Y95250D02*
X126187Y94937D01*
X126813*
X127437Y95250*
X127750Y95875*
Y97750*
X127437Y98375*
X126813Y98687*
X126187*
X125563Y98375*
X125250Y97750*
Y95875*
X125563Y95250*
X127437Y98375*
X122750Y301500D02*
Y304000D01*
Y334000D02*
Y336500D01*
Y442437D02*
Y446187D01*
X124937*
X125563Y445875*
X125875Y445250*
X125563Y444625*
X124937Y444313*
X122750*
X128063Y442750D02*
X128687Y442437D01*
X129313*
X129937Y442750*
X130250Y443375*
X129937Y444000*
X129313Y444313*
X128687*
X129313D02*
X129937Y444625D01*
X130250Y445250*
X129937Y445875*
X129313Y446187*
X128687*
X128063Y445875*
X127125Y285563D02*
X126813Y285250D01*
X126187Y284937*
X125250*
X124625Y285250*
X124313Y285563*
X124000Y286187*
Y287437*
X124313Y288063*
X124625Y288375*
X125250Y288687*
X126187*
X126813Y288375*
X127125Y288063*
X131500Y284937D02*
X129000D01*
X131187Y287125*
X131500Y287750*
X131187Y288375*
X130563Y288687*
X129625*
X129000Y288375*
X125250Y232750D02*
X120250D01*
X127750Y304000D02*
X117750D01*
Y334000*
X127750*
Y304000*
Y329000D02*
X117750D01*
Y334000*
X127750*
Y329000*
X129000Y324937D02*
Y328687D01*
X131187*
X131813Y328375*
X132125Y327750*
X131813Y327125*
X131187Y326813*
X129000*
X131187D02*
X132125Y324937D01*
X134000D02*
X136500Y328687D01*
X134000*
X132125Y378063D02*
X131813Y377750D01*
X131187Y377437*
X130250*
X129625Y377750*
X129313Y378063*
X129000Y378687*
Y379937*
X129313Y380563*
X129625Y380875*
X130250Y381187*
X131187*
X131813Y380875*
X132125Y380563*
X134313Y377750D02*
X134937Y377437D01*
X135563*
X136187Y377750*
X136500Y378375*
X136187Y379000*
X135563Y379313*
X134937*
X135563D02*
X136187Y379625D01*
X136500Y380250*
X136187Y380875*
X135563Y381187*
X134937*
X134313Y380875*
X132750Y241187D02*
Y244937D01*
X134937*
X135563Y244625*
X135875Y244000*
X135563Y243375*
X134937Y243063*
X132750*
X134937D02*
X135875Y241187D01*
X138687Y243063D02*
X139313D01*
X139937Y243375*
X140250Y244000*
X139937Y244625*
X139313Y244937*
X138687*
X138063Y244625*
X137750Y244000*
X138063Y243375*
X138687Y243063*
X138063Y242750*
X137750Y242125*
X138063Y241500*
X138687Y241187*
X139313*
X139937Y241500*
X140250Y242125*
X139937Y242750*
X139313Y243063*
X132750Y324000D02*
X142750D01*
Y304000*
X132750*
Y324000*
X137125Y206813D02*
X136813Y206500D01*
X136187Y206187*
X135250*
X134625Y206500*
X134313Y206813*
X134000Y207437*
Y208687*
X134313Y209313*
X134625Y209625*
X135250Y209937*
X136187*
X136813Y209625*
X137125Y209313*
X139625Y206187D02*
X140875D01*
X140250D02*
Y209937D01*
X139625Y209313*
X146500Y206187D02*
X144000D01*
X146187Y208375*
X146500Y209000*
X146187Y209625*
X145563Y209937*
X144625*
X144000Y209625*
X137750Y304000D02*
Y299000D01*
Y329000D02*
Y324000D01*
X139000Y130250D02*
X144000D01*
X139000Y144000D02*
X144000D01*
X139000Y156500D02*
X144000D01*
X139000Y169000D02*
X144000D01*
X141500Y57750D02*
X156500D01*
Y92750*
X141500*
Y57750*
X142198Y59381D02*
G75*
G03X147198Y61881I2500J1250D01*
G01*
G75*
G03X142198Y59381I-2500J-1250*
G01*
X142750Y51187D02*
X145875Y54937D01*
X142750D02*
X145875Y51187D01*
X147750D02*
X150875D01*
X154937Y52750D02*
X155875D01*
Y52437*
X155563Y51813*
X155250Y51500*
X154625Y51187*
X154000*
X153375Y51500*
X153063Y51813*
X152750Y52437*
Y53687*
X153063Y54313*
X153375Y54625*
X154000Y54937*
X154625*
X155250Y54625*
X155563Y54313*
X155875Y53687*
X157750Y51187D02*
X159313Y54937D01*
X160875Y51187*
X158375Y52750D02*
X160250D01*
X163687Y51187D02*
X164937D01*
X164313D02*
Y54937D01*
X163687D02*
X164937D01*
X167750Y51187D02*
Y54937D01*
X170875Y51187*
Y54937*
X142822Y62626D02*
X146567Y58757D01*
X144000Y381031D02*
X147750D01*
X145875Y379156D02*
Y382906D01*
X145250Y237750D02*
Y227750D01*
X125250*
Y237750*
X145250*
Y289781D02*
X149000D01*
X147125Y287906D02*
Y291656D01*
X145250Y379000D02*
G75*
G02X155250Y369000J-10000D01*
G01*
G75*
G02X145250Y359000I-10000*
G01*
G75*
G02X135250Y369000J10000*
G01*
G75*
G02X145250Y379000I10000*
G01*
X146500Y287500D02*
G75*
G02X162500Y271500J-16000D01*
G01*
G75*
G02X146500Y255500I-16000*
G01*
G75*
G02X130500Y271500J16000*
G01*
G75*
G02X146500Y287500I16000*
G01*
X142750Y94937D02*
Y98687D01*
X144937*
X145563Y98375*
X145875Y97750*
X145563Y97125*
X144937Y96813*
X142750*
X144937D02*
X145875Y94937D01*
X147750Y95875D02*
X148063Y96500D01*
X148687Y96813*
X149313*
X149937Y96500*
X150250Y95875*
X149937Y95250*
X149313Y94937*
X148687*
X148063Y95250*
X147750Y95875*
Y96813*
X148063Y97750*
X148687Y98375*
X149313Y98687*
X147750Y107437D02*
Y111187D01*
X149937*
X150563Y110875*
X150875Y110250*
X150563Y109625*
X149937Y109313*
X147750*
X149937D02*
X150875Y107437D01*
X153063Y107750D02*
X153687Y107437D01*
X154313*
X154937Y107750*
X155250Y108375*
X154937Y109000*
X154313Y109313*
X153687*
X154313D02*
X154937Y109625D01*
X155250Y110250*
X154937Y110875*
X154313Y111187*
X153687*
X153063Y110875*
X147750Y331500D02*
X157750D01*
Y311500*
X147750*
Y331500*
X150250Y232750D02*
X145250D01*
X150250Y389000D02*
Y406500D01*
X152750*
X155250Y404000*
X157750Y406500*
X160250*
Y389000*
X150250*
Y411187D02*
Y412437D01*
X150563Y413063*
X150875Y413375*
X151500Y413687*
X152125*
X152750Y413375*
X153063Y413063*
X153375Y412437*
Y411187*
X153063Y410563*
X152750Y410250*
X152125Y409937*
X151500*
X150875Y410250*
X150563Y410563*
X150250Y411187*
X152437Y410875D02*
X153375Y409937D01*
X155875D02*
X157125D01*
X156500D02*
Y413687D01*
X155875Y413063*
X152750Y311500D02*
Y306500D01*
Y336500D02*
Y331500D01*
X154937Y381500D02*
Y379000D01*
X153687Y380250D02*
X156187D01*
X155687Y281500D02*
Y279000D01*
X154437Y280250D02*
X156937D01*
X154000Y199000D02*
Y204000D01*
Y214000D02*
Y219000D01*
X155250Y332437D02*
Y336187D01*
X157437*
X158063Y335875*
X158375Y335250*
X158063Y334625*
X157437Y334313*
X155250*
X157437D02*
X158375Y332437D01*
X161187D02*
X161813Y332750D01*
X162437Y333375*
X162750Y334313*
Y335250*
X162437Y335875*
X161813Y336187*
X161187*
X160563Y335875*
X160250Y335250*
X160563Y334625*
X161187Y334313*
X161813*
X162437Y334625*
X162750Y335250*
X158063Y164937D02*
Y168687D01*
X156500D02*
X159625D01*
X161500Y164937D02*
Y168687D01*
X163687*
X164313Y168375*
X164625Y167750*
X164313Y167125*
X163687Y166813*
X161500*
X168063Y164937D02*
Y168687D01*
X166500Y166187*
X169000*
X159000Y204000D02*
X149000D01*
Y214000*
X159000*
Y204000*
X161500Y87750D02*
Y92750D01*
Y112750D02*
Y117750D01*
X164000Y249937D02*
Y247125D01*
X164313Y246500*
X164937Y246187*
X166187*
X166813Y246500*
X167125Y247125*
Y249937*
X169313Y246500D02*
X169937Y246187D01*
X170563*
X171187Y246500*
X171500Y247125*
X171187Y247750*
X170563Y248063*
X169937*
X170563D02*
X171187Y248375D01*
X171500Y249000*
X171187Y249625*
X170563Y249937*
X169937*
X169313Y249625*
X166500Y92750D02*
X156500D01*
Y112750*
X166500*
Y92750*
X169625Y181813D02*
X169313Y181500D01*
X168687Y181187*
X167750*
X167125Y181500*
X166813Y181813*
X166500Y182437*
Y183687*
X166813Y184313*
X167125Y184625*
X167750Y184937*
X168687*
X169313Y184625*
X169625Y184313*
X172125Y181187D02*
X173375D01*
X172750D02*
Y184937D01*
X172125Y184313*
X176813Y181500D02*
X177437Y181187D01*
X178063*
X178687Y181500*
X179000Y182125*
X178687Y182750*
X178063Y183063*
X177437*
X178063D02*
X178687Y183375D01*
X179000Y184000*
X178687Y184625*
X178063Y184937*
X177437*
X176813Y184625*
X169625Y350563D02*
X169313Y350250D01*
X168687Y349937*
X167750*
X167125Y350250*
X166813Y350563*
X166500Y351187*
Y352437*
X166813Y353063*
X167125Y353375*
X167750Y353687*
X168687*
X169313Y353375*
X169625Y353063*
X171500Y350875D02*
X171813Y351500D01*
X172437Y351813*
X173063*
X173687Y351500*
X174000Y350875*
X173687Y350250*
X173063Y349937*
X172437*
X171813Y350250*
X171500Y350875*
Y351813*
X171813Y352750*
X172437Y353375*
X173063Y353687*
X167750Y174000D02*
X162750D01*
X169000Y84000D02*
X179000D01*
Y74000*
X169000*
Y84000*
X170250Y141187D02*
Y138375D01*
X170563Y137750*
X171187Y137437*
X172437*
X173063Y137750*
X173375Y138375*
Y141187*
X176813Y137437D02*
Y141187D01*
X175250Y138687*
X177750*
X170250Y259000D02*
X175250D01*
X171500Y202750D02*
X176500D01*
X175875Y268063D02*
X175563Y267750D01*
X174937Y267437*
X174000*
X173375Y267750*
X173063Y268063*
X172750Y268687*
Y269937*
X173063Y270563*
X173375Y270875*
X174000Y271187*
X174937*
X175563Y270875*
X175875Y270563*
X179313Y267437D02*
Y271187D01*
X177750Y268687*
X180250*
X170563Y326500D02*
Y329000D01*
X171813Y327750D02*
X169313D01*
X171063Y294000D02*
Y296500D01*
X172313Y295250D02*
X169813D01*
X174000Y74000D02*
Y69000D01*
Y89000D02*
Y84000D01*
X175250Y254000D02*
Y264000D01*
X185250*
Y254000*
X175250*
X179625Y193063D02*
X179313Y192750D01*
X178687Y192437*
X177750*
X177125Y192750*
X176813Y193063*
X176500Y193687*
Y194937*
X176813Y195563*
X177125Y195875*
X177750Y196187*
X178687*
X179313Y195875*
X179625Y195563*
X182125Y192437D02*
X183375D01*
X182750D02*
Y196187D01*
X182125Y195563*
X186813Y192750D02*
X187437Y192437D01*
X188063*
X188687Y192750*
X189000Y193375*
Y195250*
X188687Y195875*
X188063Y196187*
X187437*
X186813Y195875*
X186500Y195250*
Y193375*
X186813Y192750*
X188687Y195875*
X176500Y197750D02*
Y207750D01*
X186500*
Y197750*
X176500*
Y210250D02*
Y245250D01*
X179000*
X181500Y242750*
X184000Y245250*
X186500*
Y210250*
X176500*
X180304Y69166D02*
X179992Y68853D01*
X179367Y68541*
X178429*
X177804Y68853*
X177492Y69166*
X177179Y69791*
Y71041*
X177492Y71666*
X177804Y71978*
X178429Y72291*
X179367*
X179992Y71978*
X180304Y71666*
X183117Y70416D02*
X183742D01*
X184367Y70728*
X184679Y71353*
X184367Y71978*
X183742Y72291*
X183117*
X182492Y71978*
X182179Y71353*
X182492Y70728*
X183117Y70416*
X182492Y70103*
X182179Y69478*
X182492Y68853*
X183117Y68541*
X183742*
X184367Y68853*
X184679Y69478*
X184367Y70103*
X183742Y70416*
X177750Y144000D02*
X182750D01*
X177750Y179000D02*
Y169000D01*
X167750*
Y179000*
X177750*
Y286031D02*
X181500D01*
X179625Y284156D02*
Y287906D01*
X177750Y327281D02*
X181500D01*
X179625Y325406D02*
Y329156D01*
X180250Y288000D02*
G75*
G02X164250Y304000J16000D01*
G01*
G75*
G02X180250Y320000I16000*
G01*
G75*
G02X196250Y304000J-16000*
G01*
G75*
G02X180250Y288000I-16000*
G01*
Y329000D02*
G75*
G02X170250Y339000J10000D01*
G01*
G75*
G02X180250Y349000I10000*
G01*
G75*
G02X190250Y339000J-10000*
G01*
G75*
G02X180250Y329000I-10000*
G01*
X182750Y139000D02*
Y149000D01*
X192750*
Y139000*
X182750*
Y174000D02*
X177750D01*
X184000Y100250D02*
Y135250D01*
X186500*
X189000Y132750*
X191500Y135250*
X194000*
Y100250*
X184000*
X188375Y151813D02*
X188063Y151500D01*
X187437Y151187*
X186500*
X185875Y151500*
X185563Y151813*
X185250Y152437*
Y153687*
X185563Y154313*
X185875Y154625*
X186500Y154937*
X187437*
X188063Y154625*
X188375Y154313*
X190250Y151500D02*
X190875Y151187D01*
X191813*
X192437Y151500*
X192750Y152125*
Y152437*
X192437Y153063*
X191813Y153375*
X190250*
Y154937*
X192750*
X185250Y259000D02*
X190250D01*
X186500Y202750D02*
X191500D01*
X192125Y86660D02*
X191813Y86348D01*
X191187Y86035*
X190250*
X189625Y86348*
X189313Y86660*
X189000Y87285*
Y88535*
X189313Y89160*
X189625Y89473*
X190250Y89785*
X191187*
X191813Y89473*
X192125Y89160*
X194625Y86035D02*
X195875D01*
X195250D02*
Y89785D01*
X194625Y89160*
X199625Y86035D02*
X200875D01*
X200250D02*
Y89785D01*
X199625Y89160*
X193375Y318063D02*
X193063Y317750D01*
X192437Y317437*
X191500*
X190875Y317750*
X190563Y318063*
X190250Y318687*
Y319937*
X190563Y320563*
X190875Y320875*
X191500Y321187*
X192437*
X193063Y320875*
X193375Y320563*
X195250Y317437D02*
X197750Y321187D01*
X195250*
X190250Y384000D02*
Y389000D01*
Y399000D02*
Y404000D01*
X192750Y144000D02*
X197750D01*
X195875Y403063D02*
X195563Y402750D01*
X194937Y402437*
X194000*
X193375Y402750*
X193063Y403063*
X192750Y403687*
Y404937*
X193063Y405563*
X193375Y405875*
X194000Y406187*
X194937*
X195563Y405875*
X195875Y405563*
X198687Y402437D02*
X199313Y402750D01*
X199937Y403375*
X200250Y404313*
Y405250*
X199937Y405875*
X199313Y406187*
X198687*
X198063Y405875*
X197750Y405250*
X198063Y404625*
X198687Y404313*
X199313*
X199937Y404625*
X200250Y405250*
X195250Y389000D02*
X185250D01*
Y399000*
X195250*
Y389000*
X202750Y69000D02*
Y74000D01*
Y84000D02*
Y89000D01*
X204313Y409937D02*
Y413687D01*
X202750D02*
X205875D01*
X207750Y409937D02*
Y413687D01*
X209937*
X210563Y413375*
X210875Y412750*
X210563Y412125*
X209937Y411813*
X207750*
X212750Y410250D02*
X213375Y409937D01*
X214313*
X214937Y410250*
X215250Y410875*
Y411187*
X214937Y411813*
X214313Y412125*
X212750*
Y413687*
X215250*
X207750Y74000D02*
X197750D01*
Y84000*
X207750*
Y74000*
X213063Y51187D02*
Y53063D01*
X211500Y54937*
X213063Y53063D02*
X214625Y54937D01*
X216500Y51187D02*
X219625D01*
X224625Y51813D02*
X224313Y51500D01*
X223687Y51187*
X222750*
X222125Y51500*
X221813Y51813*
X221500Y52437*
Y53687*
X221813Y54313*
X222125Y54625*
X222750Y54937*
X223687*
X224313Y54625*
X224625Y54313*
X226500Y51187D02*
Y54937D01*
X229625Y51187*
Y54937*
X233063Y51187D02*
Y54937D01*
X231500D02*
X234625D01*
X236500Y51187D02*
Y54937D01*
X238687*
X239313Y54625*
X239625Y54000*
X239313Y53375*
X238687Y53063*
X236500*
X238687D02*
X239625Y51187D01*
X211500Y227750D02*
Y232750D01*
Y252750D02*
Y257750D01*
X212750Y442437D02*
Y446187D01*
X214937*
X215563Y445875*
X215875Y445250*
X215563Y444625*
X214937Y444313*
X212750*
X220250Y442437D02*
X217750D01*
X219937Y444625*
X220250Y445250*
X219937Y445875*
X219313Y446187*
X218375*
X217750Y445875*
X216500Y232750D02*
X206500D01*
Y252750*
X216500*
Y232750*
Y254937D02*
Y258687D01*
X218687*
X219313Y258375*
X219625Y257750*
X219313Y257125*
X218687Y256813*
X216500*
X218687D02*
X219625Y254937D01*
X222125D02*
X223375D01*
X222750D02*
Y258687D01*
X222125Y258063*
X227125Y254937D02*
X228375D01*
X227750D02*
Y258687D01*
X227125Y258063*
X217750Y77750D02*
Y82750D01*
Y102750D02*
Y107750D01*
Y238687D02*
Y235875D01*
X218063Y235250*
X218687Y234937*
X219937*
X220563Y235250*
X220875Y235875*
Y238687*
X222750Y235250D02*
X223375Y234937D01*
X224313*
X224937Y235250*
X225250Y235875*
Y236187*
X224937Y236813*
X224313Y237125*
X222750*
Y238687*
X225250*
X219666Y104779D02*
Y108529D01*
X221853*
X222478Y108217*
X222791Y107592*
X222478Y106967*
X221853Y106654*
X219666*
X221853D02*
X222791Y104779D01*
X225291D02*
X226541D01*
X225916D02*
Y108529D01*
X225291Y107904*
X232166Y104779D02*
X229666D01*
X231853Y106967*
X232166Y107592*
X231853Y108217*
X231228Y108529*
X230291*
X229666Y108217*
X221500Y406500D02*
Y396500D01*
X302750*
Y406500*
X221500*
X222750Y82750D02*
X212750D01*
Y102750*
X222750*
Y82750*
X226500Y57750D02*
X241500D01*
Y92750*
X226500*
Y57750*
X227198Y59381D02*
G75*
G03X232198Y61881I2500J1250D01*
G01*
G75*
G03X227198Y59381I-2500J-1250*
G01*
X227822Y62626D02*
X231567Y58757D01*
X230250Y166500D02*
Y231500D01*
X232750*
X235250Y229000*
X237750Y231500*
X240250*
Y166500*
X230250*
X226500Y94937D02*
Y98687D01*
X228687*
X229313Y98375*
X229625Y97750*
X229313Y97125*
X228687Y96813*
X226500*
X228687D02*
X229625Y94937D01*
X232125D02*
X233375D01*
X232750D02*
Y98687D01*
X232125Y98063*
X236813Y95250D02*
X237437Y94937D01*
X238063*
X238687Y95250*
X239000Y95875*
X238687Y96500*
X238063Y96813*
X237437*
X238063D02*
X238687Y97125D01*
X239000Y97750*
X238687Y98375*
X238063Y98687*
X237437*
X236813Y98375*
X246500Y57750D02*
X261500D01*
Y92750*
X246500*
Y57750*
X247198Y59381D02*
G75*
G03X252198Y61881I2500J1250D01*
G01*
G75*
G03X247198Y59381I-2500J-1250*
G01*
X247822Y62626D02*
X251567Y58757D01*
X250563Y51187D02*
Y53063D01*
X249000Y54937*
X250563Y53063D02*
X252125Y54937D01*
X254000Y51187D02*
X257125D01*
X261187Y52750D02*
X262125D01*
Y52437*
X261813Y51813*
X261500Y51500*
X260875Y51187*
X260250*
X259625Y51500*
X259313Y51813*
X259000Y52437*
Y53687*
X259313Y54313*
X259625Y54625*
X260250Y54937*
X260875*
X261500Y54625*
X261813Y54313*
X262125Y53687*
X264000Y51187D02*
X265563Y54937D01*
X267125Y51187*
X264625Y52750D02*
X266500D01*
X269937Y51187D02*
X271187D01*
X270563D02*
Y54937D01*
X269937D02*
X271187D01*
X274000Y51187D02*
Y54937D01*
X277125Y51187*
Y54937*
X246500Y94937D02*
Y98687D01*
X248687*
X249313Y98375*
X249625Y97750*
X249313Y97125*
X248687Y96813*
X246500*
X248687D02*
X249625Y94937D01*
X252125D02*
X253375D01*
X252750D02*
Y98687D01*
X252125Y98063*
X258063Y94937D02*
Y98687D01*
X256500Y96187*
X259000*
X255250Y332437D02*
Y329625D01*
X255563Y329000*
X256187Y328687*
X257437*
X258063Y329000*
X258375Y329625*
Y332437*
X260250Y329625D02*
X260563Y330250D01*
X261187Y330563*
X261813*
X262437Y330250*
X262750Y329625*
X262437Y329000*
X261813Y328687*
X261187*
X260563Y329000*
X260250Y329625*
Y330563*
X260563Y331500*
X261187Y332125*
X261813Y332437*
X259000Y236187D02*
Y233375D01*
X259313Y232750*
X259937Y232437*
X261187*
X261813Y232750*
X262125Y233375*
Y236187*
X264000Y232437D02*
X266500Y236187D01*
X264000*
X268063Y68687D02*
Y72437D01*
X266500D02*
X269625D01*
X271500Y68687D02*
Y72437D01*
X273687*
X274313Y72125*
X274625Y71500*
X274313Y70875*
X273687Y70563*
X271500*
X276500Y69625D02*
X276813Y70250D01*
X277437Y70563*
X278063*
X278687Y70250*
X279000Y69625*
X278687Y69000*
X278063Y68687*
X277437*
X276813Y69000*
X276500Y69625*
Y70563*
X276813Y71500*
X277437Y72125*
X278063Y72437*
X266500Y146187D02*
Y143375D01*
X266813Y142750*
X267437Y142437*
X268687*
X269313Y142750*
X269625Y143375*
Y146187*
X272437Y144313D02*
X273063D01*
X273687Y144625*
X274000Y145250*
X273687Y145875*
X273063Y146187*
X272437*
X271813Y145875*
X271500Y145250*
X271813Y144625*
X272437Y144313*
X271813Y144000*
X271500Y143375*
X271813Y142750*
X272437Y142437*
X273063*
X273687Y142750*
X274000Y143375*
X273687Y144000*
X273063Y144313*
X275875Y340563D02*
X275563Y340250D01*
X274937Y339937*
X274000*
X273375Y340250*
X273063Y340563*
X272750Y341187*
Y342437*
X273063Y343063*
X273375Y343375*
X274000Y343687*
X274937*
X275563Y343375*
X275875Y343063*
X278375Y339937D02*
X279625D01*
X279000D02*
Y343687D01*
X278375Y343063*
X284313Y339937D02*
Y343687D01*
X282750Y341187*
X285250*
X276500Y149000D02*
X281500D01*
X276500Y239000D02*
X281500D01*
X277750Y336500D02*
X282750D01*
X282125Y158063D02*
X281813Y157750D01*
X281187Y157437*
X280250*
X279625Y157750*
X279313Y158063*
X279000Y158687*
Y159937*
X279313Y160563*
X279625Y160875*
X280250Y161187*
X281187*
X281813Y160875*
X282125Y160563*
X284625Y157437D02*
X285875D01*
X285250D02*
Y161187D01*
X284625Y160563*
X289000Y158375D02*
X289313Y159000D01*
X289937Y159313*
X290563*
X291187Y159000*
X291500Y158375*
X291187Y157750*
X290563Y157437*
X289937*
X289313Y157750*
X289000Y158375*
Y159313*
X289313Y160250*
X289937Y160875*
X290563Y161187*
X281500Y76500D02*
Y141500D01*
X284000*
X286500Y139000*
X289000Y141500*
X291500*
Y76500*
X281500*
Y144000D02*
Y154000D01*
X291500*
Y144000*
X281500*
Y166500D02*
Y231500D01*
X284000*
X286500Y229000*
X289000Y231500*
X291500*
Y166500*
X281500*
Y234000D02*
Y244000D01*
X291500*
Y234000*
X281500*
Y264000D02*
Y329000D01*
X284000*
X286500Y326500*
X289000Y329000*
X291500*
Y264000*
X281500*
X285875Y248063D02*
X285563Y247750D01*
X284937Y247437*
X284000*
X283375Y247750*
X283063Y248063*
X282750Y248687*
Y249937*
X283063Y250563*
X283375Y250875*
X284000Y251187*
X284937*
X285563Y250875*
X285875Y250563*
X288375Y247437D02*
X289625D01*
X289000D02*
Y251187D01*
X288375Y250563*
X292750Y247750D02*
X293375Y247437D01*
X294313*
X294937Y247750*
X295250Y248375*
Y248687*
X294937Y249313*
X294313Y249625*
X292750*
Y251187*
X295250*
X282750Y331500D02*
Y341500D01*
X292750*
Y331500*
X282750*
X291500Y149000D02*
X296500D01*
X291500Y239000D02*
X296500D01*
X292750Y336500D02*
X297750D01*
X305250Y399937D02*
Y403687D01*
X307437*
X308063Y403375*
X308375Y402750*
X308063Y402125*
X307437Y401813*
X305250*
X310250Y403687D02*
Y399937D01*
X313375*
X315563Y400250D02*
X316187Y399937D01*
X316813*
X317437Y400250*
X317750Y400875*
X317437Y401500*
X316813Y401813*
X316187*
X316813D02*
X317437Y402125D01*
X317750Y402750*
X317437Y403375*
X316813Y403687*
X316187*
X315563Y403375*
X305250Y439937D02*
Y443687D01*
X307437*
X308063Y443375*
X308375Y442750*
X308063Y442125*
X307437Y441813*
X305250*
X310875Y439937D02*
X312125D01*
X311500D02*
Y443687D01*
X310875Y443063*
X325563Y49937D02*
Y53687D01*
X324000D02*
X327125D01*
X329000Y49937D02*
Y53687D01*
X331187*
X331813Y53375*
X332125Y52750*
X331813Y52125*
X331187Y51813*
X329000*
X334000Y49937D02*
X336500Y53687D01*
X334000*
X335250Y222437D02*
Y226187D01*
X337437*
X338063Y225875*
X338375Y225250*
X338063Y224625*
X337437Y224313*
X335250*
X340250Y226187D02*
Y222437D01*
X343375*
X346813D02*
Y226187D01*
X345250Y223687*
X347750*
X339313Y89937D02*
Y93687D01*
X337750D02*
X340875D01*
X342750Y89937D02*
Y93687D01*
X344937*
X345563Y93375*
X345875Y92750*
X345563Y92125*
X344937Y91813*
X342750*
X348375Y89937D02*
X349625D01*
X349000D02*
Y93687D01*
X348375Y93063*
X354313Y89937D02*
Y93687D01*
X352750Y91187*
X355250*
X337750Y337437D02*
Y341187D01*
X339937*
X340563Y340875*
X340875Y340250*
X340563Y339625*
X339937Y339313*
X337750*
X339937D02*
X340875Y337437D01*
X343375D02*
X344625D01*
X344000D02*
Y341187D01*
X343375Y340563*
X347750Y337750D02*
X348375Y337437D01*
X349313*
X349937Y337750*
X350250Y338375*
Y338687*
X349937Y339313*
X349313Y339625*
X347750*
Y341187*
X350250*
X339000Y124937D02*
Y128687D01*
X341187*
X341813Y128375*
X342125Y127750*
X341813Y127125*
X341187Y126813*
X339000*
X344000Y128687D02*
Y124937D01*
X347125*
X349000Y125250D02*
X349625Y124937D01*
X350563*
X351187Y125250*
X351500Y125875*
Y126187*
X351187Y126813*
X350563Y127125*
X349000*
Y128687*
X351500*
X344313Y164937D02*
Y168687D01*
X342750D02*
X345875D01*
X347750Y164937D02*
Y168687D01*
X349937*
X350563Y168375*
X350875Y167750*
X350563Y167125*
X349937Y166813*
X347750*
X353375Y164937D02*
X354625D01*
X354000D02*
Y168687D01*
X353375Y168063*
X358063Y165250D02*
X358687Y164937D01*
X359313*
X359937Y165250*
X360250Y165875*
X359937Y166500*
X359313Y166813*
X358687*
X359313D02*
X359937Y167125D01*
X360250Y167750*
X359937Y168375*
X359313Y168687*
X358687*
X358063Y168375*
X344313Y199937D02*
Y203687D01*
X342750D02*
X345875D01*
X347750Y199937D02*
Y203687D01*
X349937*
X350563Y203375*
X350875Y202750*
X350563Y202125*
X349937Y201813*
X347750*
X353375Y199937D02*
X354625D01*
X354000D02*
Y203687D01*
X353375Y203063*
X360250Y199937D02*
X357750D01*
X359937Y202125*
X360250Y202750*
X359937Y203375*
X359313Y203687*
X358375*
X357750Y203375*
X346813Y292437D02*
Y296187D01*
X345250D02*
X348375D01*
X350250Y292437D02*
Y296187D01*
X352437*
X353063Y295875*
X353375Y295250*
X353063Y294625*
X352437Y294313*
X350250*
X355875Y292437D02*
X357125D01*
X356500D02*
Y296187D01*
X355875Y295563*
X360875Y292437D02*
X362125D01*
X361500D02*
Y296187D01*
X360875Y295563*
X346813Y404937D02*
Y408687D01*
X345250D02*
X348375D01*
X350250Y404937D02*
Y408687D01*
X352437*
X353063Y408375*
X353375Y407750*
X353063Y407125*
X352437Y406813*
X350250*
X356187Y404937D02*
X356813Y405250D01*
X357437Y405875*
X357750Y406813*
Y407750*
X357437Y408375*
X356813Y408687*
X356187*
X355563Y408375*
X355250Y407750*
X355563Y407125*
X356187Y406813*
X356813*
X357437Y407125*
X357750Y407750*
X347750Y334000D02*
X357750D01*
Y314000*
X347750*
Y334000*
X349313Y377437D02*
Y381187D01*
X347750D02*
X350875D01*
X352750Y377437D02*
Y381187D01*
X354937*
X355563Y380875*
X355875Y380250*
X355563Y379625*
X354937Y379313*
X352750*
X358375Y377437D02*
X359625D01*
X359000D02*
Y381187D01*
X358375Y380563*
X363063Y377750D02*
X363687Y377437D01*
X364313*
X364937Y377750*
X365250Y378375*
Y380250*
X364937Y380875*
X364313Y381187*
X363687*
X363063Y380875*
X362750Y380250*
Y378375*
X363063Y377750*
X364937Y380875*
X349313Y427437D02*
Y431187D01*
X347750D02*
X350875D01*
X352750Y427437D02*
Y431187D01*
X354937*
X355563Y430875*
X355875Y430250*
X355563Y429625*
X354937Y429313*
X352750*
X358687D02*
X359313D01*
X359937Y429625*
X360250Y430250*
X359937Y430875*
X359313Y431187*
X358687*
X358063Y430875*
X357750Y430250*
X358063Y429625*
X358687Y429313*
X358063Y429000*
X357750Y428375*
X358063Y427750*
X358687Y427437*
X359313*
X359937Y427750*
X360250Y428375*
X359937Y429000*
X359313Y429313*
X350563Y49937D02*
Y53687D01*
X349000D02*
X352125D01*
X354000Y49937D02*
Y53687D01*
X356187*
X356813Y53375*
X357125Y52750*
X356813Y52125*
X356187Y51813*
X354000*
X359625Y49937D02*
X360875D01*
X360250D02*
Y53687D01*
X359625Y53063*
X364000Y50250D02*
X364625Y49937D01*
X365563*
X366187Y50250*
X366500Y50875*
Y51187*
X366187Y51813*
X365563Y52125*
X364000*
Y53687*
X366500*
X349000Y138687D02*
Y142437D01*
X351187*
X351813Y142125*
X352125Y141500*
X351813Y140875*
X351187Y140563*
X349000*
X354000Y142437D02*
Y138687D01*
X357125*
X359000Y139625D02*
X359313Y140250D01*
X359937Y140563*
X360563*
X361187Y140250*
X361500Y139625*
X361187Y139000*
X360563Y138687*
X359937*
X359313Y139000*
X359000Y139625*
Y140563*
X359313Y141500*
X359937Y142125*
X360563Y142437*
X352750Y314000D02*
Y309000D01*
Y339000D02*
Y334000D01*
X362750Y286187D02*
Y282437D01*
X365875*
X370250D02*
X367750D01*
X369937Y284625*
X370250Y285250*
X369937Y285875*
X369313Y286187*
X368375*
X367750Y285875*
X362750Y323687D02*
Y319937D01*
X365875*
X368375D02*
X369625D01*
X369000D02*
Y323687D01*
X368375Y323063*
X371813Y184937D02*
Y188687D01*
X370250D02*
X373375D01*
X375250Y184937D02*
Y188687D01*
X377437*
X378063Y188375*
X378375Y187750*
X378063Y187125*
X377437Y186813*
X375250*
X380875Y184937D02*
X382125D01*
X381500D02*
Y188687D01*
X380875Y188063*
X385250Y184937D02*
X387750Y188687D01*
X385250*
X371750Y284000D02*
G75*
G03X382750Y273000I11000D01*
G01*
G75*
G03X393750Y284000J11000*
G01*
G75*
G03X389450Y294300I-14583J-41*
G01*
X376050*
G75*
G03X371750Y284000I10283J-10341*
G01*
Y319000D02*
G75*
G03X382750Y308000I11000D01*
G01*
G75*
G03X393750Y319000J11000*
G01*
G75*
G03X389450Y329300I-14583J-41*
G01*
X376050*
G75*
G03X371750Y319000I10283J-10341*
G01*
X374313Y214937D02*
Y218687D01*
X372750D02*
X375875D01*
X377750Y214937D02*
Y218687D01*
X379937*
X380563Y218375*
X380875Y217750*
X380563Y217125*
X379937Y216813*
X377750*
X383375Y214937D02*
X384625D01*
X384000D02*
Y218687D01*
X383375Y218063*
X387750Y215875D02*
X388063Y216500D01*
X388687Y216813*
X389313*
X389937Y216500*
X390250Y215875*
X389937Y215250*
X389313Y214937*
X388687*
X388063Y215250*
X387750Y215875*
Y216813*
X388063Y217750*
X388687Y218375*
X389313Y218687*
X376500Y258687D02*
Y262437D01*
X378687*
X379313Y262125*
X379625Y261500*
X379313Y260875*
X378687Y260563*
X376500*
X378687D02*
X379625Y258687D01*
X382125D02*
X383375D01*
X382750D02*
Y262437D01*
X382125Y261813*
X386500Y259625D02*
X386813Y260250D01*
X387437Y260563*
X388063*
X388687Y260250*
X389000Y259625*
X388687Y259000*
X388063Y258687*
X387437*
X386813Y259000*
X386500Y259625*
Y260563*
X386813Y261500*
X387437Y262125*
X388063Y262437*
X381813Y432437D02*
Y436187D01*
X380250D02*
X383375D01*
X385250Y432437D02*
Y436187D01*
X387437*
X388063Y435875*
X388375Y435250*
X388063Y434625*
X387437Y434313*
X385250*
X390875Y432437D02*
X392125D01*
X391500D02*
Y436187D01*
X390875Y435563*
X396187Y434313D02*
X396813D01*
X397437Y434625*
X397750Y435250*
X397437Y435875*
X396813Y436187*
X396187*
X395563Y435875*
X395250Y435250*
X395563Y434625*
X396187Y434313*
X395563Y434000*
X395250Y433375*
X395563Y432750*
X396187Y432437*
X396813*
X397437Y432750*
X397750Y433375*
X397437Y434000*
X396813Y434313*
X392750Y230250D02*
Y235250D01*
Y255250D02*
Y260250D01*
X397750Y235250D02*
X387750D01*
Y255250*
X397750*
Y235250*
D02*
D12*
X70250Y373375D02*
X75250D01*
X70250Y393375D02*
X75250D01*
X72750Y390875D02*
Y395875D01*
X80250Y373375D02*
X85250D01*
X80250Y393375D02*
X85250D01*
X82750Y390875D02*
Y395875D01*
X90250Y373375D02*
X95250D01*
X90250Y393375D02*
X95250D01*
X92750Y390875D02*
Y395875D01*
Y96500D02*
Y86500D01*
X102750*
Y96500*
X92750*
X102750Y404000D02*
Y364000D01*
X112750*
Y404000*
X102750*
X105250Y109000D02*
Y99000D01*
X115250*
Y109000*
X105250*
Y199000D02*
Y189000D01*
X115250*
Y199000*
X105250*
X159000Y161500D02*
Y151500D01*
X169000*
Y161500*
X159000*
X205250Y406500D02*
Y396500D01*
X215250*
Y406500*
X205250*
X269000Y65250D02*
Y55250D01*
X279000*
Y65250*
X269000*
X325250Y69000D02*
Y59000D01*
X335250*
Y69000*
X325250*
X337750Y269000D02*
Y229000D01*
X347750*
Y269000*
X337750*
X340250Y86500D02*
Y76500D01*
X350250*
Y86500*
X340250*
Y119000D02*
Y99000D01*
X350250*
Y119000*
X340250*
X345250Y161500D02*
Y151500D01*
X355250*
Y161500*
X345250*
Y196500D02*
Y186500D01*
X355250*
Y196500*
X345250*
X347750Y289000D02*
Y279000D01*
X357750*
Y289000*
X347750*
Y374000D02*
Y364000D01*
X357750*
Y374000*
X347750*
Y401500D02*
Y391500D01*
X357750*
Y401500*
X347750*
Y424000D02*
Y414000D01*
X357750*
Y424000*
X347750*
X351500Y69000D02*
Y59000D01*
X361500*
Y69000*
X351500*
X375250Y181500D02*
Y171500D01*
X385250*
Y181500*
X375250*
X377750Y211500D02*
Y201500D01*
X387750*
Y211500*
X377750*
X380250Y116500D02*
Y146500D01*
X370250*
Y116500*
X380250*
X382750Y429000D02*
Y419000D01*
X392750*
Y429000*
X382750*
X391500Y125875D02*
X396500D01*
X394000Y123375D02*
Y128375D01*
X391500Y137125D02*
X396500D01*
X413375Y82750D02*
X405875Y85875D01*
X413375Y89000*
X410250Y84000D02*
Y87750D01*
X413375Y92750D02*
X405875D01*
Y97125*
X406500Y98375*
X407750Y99000*
X409000Y98375*
X409625Y97125*
Y92750*
Y97125D02*
X413375Y99000D01*
Y102750D02*
X405875D01*
Y106500*
X406500Y107750*
X407125Y108375*
X408375Y109000*
X410875*
X412125Y108375*
X412750Y107750*
X413375Y106500*
Y102750*
X405875Y112750D02*
X411500D01*
X412750Y113375*
X413375Y114625*
Y117125*
X412750Y118375*
X411500Y119000*
X405875*
X413375Y124625D02*
Y127125D01*
Y125875D02*
X405875D01*
Y124625D02*
Y127125D01*
X413375Y132750D02*
X405875D01*
X413375Y139000*
X405875*
X410875Y142750D02*
X408375D01*
X407125Y143375*
X406500Y144000*
X405875Y145250*
Y146500*
X406500Y147750*
X407125Y148375*
X408375Y149000*
X410875*
X412125Y148375*
X412750Y147750*
X413375Y146500*
Y145250*
X412750Y144000*
X412125Y143375*
X410875Y142750*
X410250Y167125D02*
Y169000D01*
X410875*
X412125Y168375*
X412750Y167750*
X413375Y166500*
Y165250*
X412750Y164000*
X412125Y163375*
X410875Y162750*
X408375*
X407125Y163375*
X406500Y164000*
X405875Y165250*
Y166500*
X406500Y167750*
X407125Y168375*
X408375Y169000*
X413375Y172750D02*
X405875D01*
Y177125*
X406500Y178375*
X407750Y179000*
X409000Y178375*
X409625Y177125*
Y172750*
Y177125D02*
X413375Y179000D01*
Y182750D02*
X405875Y185875D01*
X413375Y189000*
X410250Y184000D02*
Y187750D01*
X413375Y192750D02*
X405875D01*
Y197125*
X406500Y198375*
X407750Y199000*
X409000Y198375*
X409625Y197125*
Y192750*
X413375Y202750D02*
X405875D01*
X409625D02*
Y209000D01*
X413375D02*
X405875D01*
X413375Y214625D02*
Y217125D01*
Y215875D02*
X405875D01*
Y214625D02*
Y217125D01*
X412125Y229000D02*
X412750Y228375D01*
X413375Y227125*
Y225250*
X412750Y224000*
X412125Y223375*
X410875Y222750*
X408375*
X407125Y223375*
X406500Y224000*
X405875Y225250*
Y227125*
X406500Y228375*
X407125Y229000*
X411500Y232750D02*
X412750Y233375D01*
X413375Y234625*
Y237125*
X412750Y238375*
X411500Y239000*
X410250Y238375*
X409625Y237125*
Y234625*
X409000Y233375*
X407750Y232750*
X406500Y233375*
X405875Y234625*
Y237125*
X406500Y238375*
X407750Y239000*
X413375Y254625D02*
Y257125D01*
Y255875D02*
X405875D01*
Y254625D02*
Y257125D01*
X413375Y262750D02*
X405875D01*
X413375Y269000*
X405875*
X413375Y275875D02*
X405875D01*
Y272750D02*
Y279000D01*
X413375Y282750D02*
X405875D01*
Y289000*
X409625Y287750D02*
Y282750D01*
X413375D02*
Y289000D01*
Y292750D02*
X405875D01*
Y297125*
X406500Y298375*
X407750Y299000*
X409000Y298375*
X409625Y297125*
Y292750*
Y297125D02*
X413375Y299000D01*
Y302750D02*
X405875D01*
Y309000*
X409625Y307750D02*
Y302750D01*
X413375Y312750D02*
X405875Y315875D01*
X413375Y319000*
X410250Y314000D02*
Y317750D01*
X412125Y329000D02*
X412750Y328375D01*
X413375Y327125*
Y325250*
X412750Y324000*
X412125Y323375*
X410875Y322750*
X408375*
X407125Y323375*
X406500Y324000*
X405875Y325250*
Y327125*
X406500Y328375*
X407125Y329000*
X413375Y332750D02*
X405875D01*
Y339000*
X409625Y337750D02*
Y332750D01*
X413375D02*
Y339000D01*
Y357750D02*
Y352750D01*
X409000Y357125*
X407750Y357750*
X406500Y357125*
X405875Y355875*
Y354000*
X406500Y352750*
X412750Y363375D02*
X413375Y364625D01*
Y365875*
X412750Y367125*
X411500Y367750*
X407750*
X406500Y367125*
X405875Y365875*
Y364625*
X406500Y363375*
X407750Y362750*
X411500*
X412750Y363375*
X406500Y367125*
X413375Y374000D02*
Y376500D01*
Y375250D02*
X405875D01*
X407125Y374000*
X409625Y384625D02*
Y385875D01*
X409000Y387125*
X407750Y387750*
X406500Y387125*
X405875Y385875*
Y384625*
X406500Y383375*
X407750Y382750*
X409000Y383375*
X409625Y384625*
X410250Y383375*
X411500Y382750*
X412750Y383375*
X413375Y384625*
Y385875*
X412750Y387125*
X411500Y387750*
X410250Y387125*
X409625Y385875*
X412750Y393375D02*
X413375Y394625D01*
Y395875*
X412750Y397125*
X411500Y397750*
X407750*
X406500Y397125*
X405875Y395875*
Y394625*
X406500Y393375*
X407750Y392750*
X411500*
X412750Y393375*
X406500Y397125*
X409625Y404625D02*
Y405875D01*
X409000Y407125*
X407750Y407750*
X406500Y407125*
X405875Y405875*
Y404625*
X406500Y403375*
X407750Y402750*
X409000Y403375*
X409625Y404625*
X410250Y403375*
X411500Y402750*
X412750Y403375*
X413375Y404625*
Y405875*
X412750Y407125*
X411500Y407750*
X410250Y407125*
X409625Y405875*
X412750Y413375D02*
X413375Y414625D01*
Y415875*
X412750Y417125*
X411500Y417750*
X407750*
X406500Y417125*
X405875Y415875*
Y414625*
X406500Y413375*
X407750Y412750*
X411500*
X412750Y413375*
X406500Y417125*
X412750Y422750D02*
X413375Y424000D01*
Y425875*
X412750Y427125*
X411500Y427750*
X410875*
X409625Y427125*
X409000Y425875*
Y422750*
X405875*
Y427750*
X413375Y432750D02*
X405875D01*
Y437125*
X406500Y438375*
X407750Y439000*
X409000Y438375*
X409625Y437125*
Y432750*
Y437125D02*
X413375Y439000D01*
Y444000D02*
Y446500D01*
Y445250D02*
X405875D01*
X407125Y444000*
D02*
D13*
X165250Y445563D02*
X174625D01*
X165250Y434313*
X174625*
X254937D02*
Y439937D01*
X250250Y445563*
X254937Y439937D02*
X259625Y445563D01*
X337750Y434313D02*
X347125Y445563D01*
X337750D02*
X347125Y434313D01*
X363250Y372125D02*
X372000D01*
X363250Y361625*
X372000*
X367625Y391625D02*
Y396875D01*
X363250Y402125*
X367625Y396875D02*
X372000Y402125D01*
X363250Y414125D02*
X372000Y424625D01*
X363250D02*
X372000Y414125D01*
D02*
D74*
X67750Y84000D02*
X72750Y76500D01*
X77750Y84000*
X67750*
X69000Y142625D02*
Y147125D01*
X71250*
X72000Y146750*
X72375Y146375*
X72750Y145625*
Y144125*
X72375Y143375*
X72000Y143000*
X71250Y142625*
X69000*
X75000D02*
X76875Y147125D01*
X78750Y142625*
X75750Y144500D02*
X78000D01*
X84750Y143375D02*
X84375Y143000D01*
X83625Y142625*
X82500*
X81750Y143000*
X81375Y143375*
X81000Y144125*
Y145625*
X81375Y146375*
X81750Y146750*
X82500Y147125*
X83625*
X84375Y146750*
X84750Y146375*
X87750Y142625D02*
X89250D01*
X88500D02*
Y147125D01*
X87750Y146375*
X69000Y151375D02*
Y155875D01*
X71250*
X72000Y155500*
X72375Y155125*
X72750Y154375*
Y152875*
X72375Y152125*
X72000Y151750*
X71250Y151375*
X69000*
X75000D02*
X76875Y155875D01*
X78750Y151375*
X75750Y153250D02*
X78000D01*
X84750Y152125D02*
X84375Y151750D01*
X83625Y151375*
X82500*
X81750Y151750*
X81375Y152125*
X81000Y152875*
Y154375*
X81375Y155125*
X81750Y155500*
X82500Y155875*
X83625*
X84375Y155500*
X84750Y155125*
X87375Y151750D02*
X88125Y151375D01*
X88875*
X89625Y151750*
X90000Y152500*
Y154750*
X89625Y155500*
X88875Y155875*
X88125*
X87375Y155500*
X87000Y154750*
Y152500*
X87375Y151750*
X89625Y155500*
X69000Y161750D02*
X69750Y161375D01*
X70875*
X71625Y161750*
X72000Y162500*
Y162875*
X71625Y163625*
X70875Y164000*
X69000*
Y165875*
X72000*
X75000D02*
X76875Y161375D01*
X78750Y165875*
X72875Y105750D02*
X74000D01*
Y105375*
X73625Y104625*
X73250Y104250*
X72500Y103875*
X71750*
X71000Y104250*
X70625Y104625*
X70250Y105375*
Y106875*
X70625Y107625*
X71000Y108000*
X71750Y108375*
X72500*
X73250Y108000*
X73625Y107625*
X74000Y106875*
X76250Y103875D02*
Y108375D01*
X80000Y103875*
Y108375*
X82250Y103875D02*
Y108375D01*
X84500*
X85250Y108000*
X85625Y107625*
X86000Y106875*
Y105375*
X85625Y104625*
X85250Y104250*
X84500Y103875*
X82250*
X72875Y113250D02*
X74000D01*
Y112875*
X73625Y112125*
X73250Y111750*
X72500Y111375*
X71750*
X71000Y111750*
X70625Y112125*
X70250Y112875*
Y114375*
X70625Y115125*
X71000Y115500*
X71750Y115875*
X72500*
X73250Y115500*
X73625Y115125*
X74000Y114375*
X76250Y111375D02*
Y115875D01*
X80000Y111375*
Y115875*
X82250Y111375D02*
Y115875D01*
X84500*
X85250Y115500*
X85625Y115125*
X86000Y114375*
Y112875*
X85625Y112125*
X85250Y111750*
X84500Y111375*
X82250*
X72875Y183250D02*
X74000D01*
Y182875*
X73625Y182125*
X73250Y181750*
X72500Y181375*
X71750*
X71000Y181750*
X70625Y182125*
X70250Y182875*
Y184375*
X70625Y185125*
X71000Y185500*
X71750Y185875*
X72500*
X73250Y185500*
X73625Y185125*
X74000Y184375*
X76250Y181375D02*
Y185875D01*
X80000Y181375*
Y185875*
X82250Y181375D02*
Y185875D01*
X84500*
X85250Y185500*
X85625Y185125*
X86000Y184375*
Y182875*
X85625Y182125*
X85250Y181750*
X84500Y181375*
X82250*
X72750Y84000D02*
Y91500D01*
X92750*
X67000Y443750D02*
Y445750D01*
X67500Y446750*
X68000Y447250*
X69000Y447750*
X70000*
X71000Y447250*
X71500Y446750*
X72000Y445750*
Y443750*
X71500Y442750*
X71000Y442250*
X70000Y441750*
X69000*
X68000Y442250*
X67500Y442750*
X67000Y443750*
X75000Y441750D02*
Y447750D01*
X80000*
X79000Y444750D02*
X75000D01*
X83000Y441750D02*
Y447750D01*
X88000*
X87000Y444750D02*
X83000D01*
X69250Y380500D02*
X71250D01*
X70250D02*
Y386500D01*
X69250Y385500*
X80250Y380500D02*
X76250D01*
X79750Y384000*
X80250Y385000*
X79750Y386000*
X78750Y386500*
X77250*
X76250Y386000*
X84250Y386500D02*
X86750Y380500D01*
X89250Y386500*
X102750Y379000D02*
X97750D01*
Y369000*
X102750*
Y399000D02*
X97750D01*
Y389000*
X102750*
X97250Y443750D02*
Y445750D01*
X97750Y446750*
X98250Y447250*
X99250Y447750*
X100250*
X101250Y447250*
X101750Y446750*
X102250Y445750*
Y443750*
X101750Y442750*
X101250Y442250*
X100250Y441750*
X99250*
X98250Y442250*
X97750Y442750*
X97250Y443750*
X105250Y441750D02*
Y447750D01*
X110250Y441750*
Y447750*
X130250Y449000D02*
X120250D01*
Y496500*
X180250*
Y449000*
X160250*
X205250Y391500D02*
X210250Y384000D01*
X215250Y391500*
X205250*
X210250D02*
Y396500D01*
X220250Y449000D02*
X210250D01*
Y496500*
X270250*
Y449000*
X250250*
X310250D02*
X300250D01*
Y496500*
X360250*
Y449000*
X340250*
X354125Y233250D02*
X355250D01*
Y232875*
X354875Y232125*
X354500Y231750*
X353750Y231375*
X353000*
X352250Y231750*
X351875Y232125*
X351500Y232875*
Y234375*
X351875Y235125*
X352250Y235500*
X353000Y235875*
X353750*
X354500Y235500*
X354875Y235125*
X355250Y234375*
X357500Y231375D02*
Y235875D01*
X361250Y231375*
Y235875*
X363500Y231375D02*
Y235875D01*
X365750*
X366500Y235500*
X366875Y235125*
X367250Y234375*
Y232875*
X366875Y232125*
X366500Y231750*
X365750Y231375*
X363500*
X351500Y251375D02*
Y255875D01*
X353750*
X354500Y255500*
X354875Y255125*
X355250Y254375*
Y252875*
X354875Y252125*
X354500Y251750*
X353750Y251375*
X351500*
X360500D02*
X357500D01*
X360125Y254000*
X360500Y254750*
X360125Y255500*
X359375Y255875*
X358250*
X357500Y255500*
X351500Y262625D02*
Y267125D01*
X353750*
X354500Y266750*
X354875Y266375*
X355250Y265625*
Y264125*
X354875Y263375*
X354500Y263000*
X353750Y262625*
X351500*
X357875Y263000D02*
X358625Y262625D01*
X359375*
X360125Y263000*
X360500Y263750*
X360125Y264500*
X359375Y264875*
X358625*
X359375D02*
X360125Y265250D01*
X360500Y266000*
X360125Y266750*
X359375Y267125*
X358625*
X357875Y266750*
X352750Y101750D02*
X353500Y101375D01*
X354625*
X355375Y101750*
X355750Y102500*
Y102875*
X355375Y103625*
X354625Y104000*
X352750*
Y105875*
X355750*
X358750D02*
X360625Y101375D01*
X362500Y105875*
X352750Y111750D02*
X353500Y111375D01*
X354625*
X355375Y111750*
X355750Y112500*
Y112875*
X355375Y113625*
X354625Y114000*
X352750*
Y115875*
X355750*
X358750D02*
X360625Y111375D01*
X362500Y115875*
X364513Y138550D02*
X365537Y138037D01*
X366563*
X367587Y138550*
X368100Y139575*
X367587Y140600*
X366563Y141113*
X365537*
X366563D02*
X367587Y141625D01*
X368100Y142650*
X367587Y143675*
X366563Y144187*
X365537*
X364513Y143675*
X368100Y128198D02*
X364000D01*
X367587Y131785*
X368100Y132810*
X367587Y133835*
X366563Y134348*
X365025*
X364000Y133835*
X365025Y118358D02*
X367075D01*
X366050D02*
Y124508D01*
X365025Y123483*
X362750Y158687D02*
X365875D01*
X362750Y154937*
X365875*
X367750Y156187D02*
X370250D01*
X372750Y154937D02*
X374313Y158687D01*
X375875Y154937*
X373375Y156500D02*
X375250D01*
X377750Y154937D02*
X380875Y158687D01*
X377750D02*
X380875Y154937D01*
X383687D02*
X384937D01*
X384313D02*
Y158687D01*
X383687D02*
X384937D01*
X387750Y155875D02*
X388063Y155250D01*
X388687Y154937*
X389937*
X390563Y155250*
X390875Y155875*
X390563Y156500*
X389937Y156813*
X388687*
X388063Y157125*
X387750Y157750*
X388063Y158375*
X388687Y158687*
X389937*
X390563Y158375*
X390875Y157750*
X357750Y148937D02*
Y152687D01*
X359937*
X360563Y152375*
X360875Y151750*
X360563Y151125*
X359937Y150813*
X357750*
X362750Y150187D02*
Y151437D01*
X363063Y152063*
X363375Y152375*
X364000Y152687*
X364625*
X365250Y152375*
X365563Y152063*
X365875Y151437*
Y150187*
X365563Y149563*
X365250Y149250*
X364625Y148937*
X364000*
X363375Y149250*
X363063Y149563*
X362750Y150187*
X367750Y152687D02*
Y148937D01*
X370875*
X372750D02*
X374313Y152687D01*
X375875Y148937*
X373375Y150500D02*
X375250D01*
X377750Y148937D02*
Y152687D01*
X379937*
X380563Y152375*
X380875Y151750*
X380563Y151125*
X379937Y150813*
X377750*
X379937D02*
X380875Y148937D01*
X383687D02*
X384937D01*
X384313D02*
Y152687D01*
X383687D02*
X384937D01*
X389313Y148937D02*
Y152687D01*
X387750D02*
X390875D01*
X394313Y148937D02*
Y150813D01*
X392750Y152687*
X394313Y150813D02*
X395875Y152687D01*
X382750Y129000D02*
X387750D01*
Y121500*
X382750*
Y141500D02*
X387750D01*
Y134000*
X382750*
X370450Y300087D02*
X374550D01*
X372500Y298037D02*
Y302137D01*
X378650Y298550D02*
X379675Y298037D01*
X381213*
X382237Y298550*
X382750Y299575*
Y300087*
X382237Y301113*
X381213Y301625*
X378650*
Y304187*
X382750*
X386850D02*
X389413Y298037D01*
X391975Y304187*
X366350Y335087D02*
X370450D01*
X368400Y333037D02*
Y337137D01*
X375575Y333037D02*
X377625D01*
X376600D02*
Y339187D01*
X375575Y338163*
X383263Y333550D02*
X384287Y333037D01*
X385313*
X386337Y333550*
X386850Y334575*
Y337650*
X386337Y338675*
X385313Y339187*
X384287*
X383263Y338675*
X382750Y337650*
Y334575*
X383263Y333550*
X386337Y338675*
X390950Y339187D02*
X393513Y333037D01*
X396075Y339187*
X386500Y199000D02*
X391500Y191500D01*
X396500Y199000*
X386500*
X387750Y206500D02*
X391500D01*
Y199000*
X395250Y419000D02*
X400250Y411500D01*
X405250Y419000*
X395250*
X400250D02*
Y424000D01*
X392750*
X0Y0D02*
M02*
